M48
INCH,TZ
T1C0.016
T2C0.030
T3C0.032
%
G90
G05
T1
X40900Y-42900
X41200Y-43300
X41600Y-41600
X41700Y-44100
X42300Y-44100
X42400Y-41600
X42800Y-43300
X43100Y-42900
X49700Y-38500
X50200Y-39800
X50200Y-40400
X50800Y-44800
X51300Y-39300
X52100Y-43400
X52200Y-40900
X52253Y-43695
X52700Y-39500
X53800Y-37800
X54200Y-43100
X54700Y-40300
X55300Y-40000
X55700Y-41300
X55700Y-41700
X55700Y-42100
X56100Y-41300
X56100Y-41700
X56100Y-42100
X56100Y-43500
X56500Y-41300
X56500Y-41700
X56500Y-42100
X56600Y-45300
X56800Y-40000
X57600Y-40500
X57900Y-41000
X58300Y-38600
X58300Y-41100
X58400Y-37700
X58600Y-42400
X59150Y-39750
X59427Y-40686
T2
X55100Y-36700
X57100Y-36700
T3
X52500Y-37200
X53100Y-45400
X54350Y-44200
X57800Y-45700
X59400Y-42700
X59400Y-43950
X59400Y-45200
X59700Y-36600
X60600Y-38243
X60600Y-39200
X60600Y-40200
X60600Y-41157
X60600Y-42243
X60600Y-43200
X60600Y-44200
X60600Y-45157
T0
M30
