M48
INCH,TZ
T1C0.016
T2C0.030
T3C0.032
%
G90
G05
T1
X41000Y-43100
X41300Y-43900
X41600Y-41600
X41700Y-44100
X42300Y-44100
X42400Y-41600
X42700Y-43900
X43000Y-43100
X50200Y-38700
X50200Y-39800
X50200Y-40400
X50700Y-37900
X50800Y-44800
X51100Y-38700
X52000Y-44700
X52200Y-40900
X52200Y-42400
X52253Y-43695
X52700Y-39500
X53800Y-37800
X54700Y-40300
X55200Y-40000
X55700Y-41300
X55700Y-41700
X55700Y-42100
X56100Y-41300
X56100Y-41700
X56100Y-42100
X56100Y-43500
X56300Y-40000
X56500Y-41300
X56500Y-41700
X56500Y-42100
X56600Y-45300
X57900Y-40800
X57900Y-43300
X58400Y-37700
T2
X55100Y-36700
X57100Y-36700
T3
X52500Y-37200
X53100Y-45400
X54350Y-44200
X57800Y-45700
X58700Y-40700
X59200Y-39000
X59500Y-37500
X59500Y-44200
X60600Y-38143
X60600Y-39100
X60600Y-40100
X60600Y-41057
X60600Y-42243
X60600Y-43200
X60600Y-44200
X60600Y-45157
T0
M30
