G04 #@! TF.FileFunction,Copper,L1,Top,Signal*
%FSLAX46Y46*%
G04 Gerber Fmt 4.6, Leading zero omitted, Abs format (unit mm)*
G04 Created by KiCad (PCBNEW 4.0.0-rc1-stable) date 11/17/2015 11:37:48 PM*
%MOMM*%
G01*
G04 APERTURE LIST*
%ADD10C,0.100000*%
%ADD11C,0.300000*%
%ADD12R,1.000760X0.599440*%
%ADD13C,1.422400*%
%ADD14R,0.800000X0.750000*%
%ADD15R,0.500000X0.900000*%
%ADD16R,0.750000X0.800000*%
%ADD17R,0.900000X0.500000*%
%ADD18O,0.230000X0.998220*%
%ADD19R,0.230000X0.998220*%
%ADD20O,0.998220X0.230000*%
%ADD21R,0.998220X0.230000*%
%ADD22R,3.000000X3.000000*%
%ADD23C,1.998980*%
%ADD24R,1.000000X1.000000*%
%ADD25R,1.000000X0.500000*%
%ADD26R,1.200000X1.400000*%
%ADD27C,0.600000*%
%ADD28C,0.250000*%
%ADD29C,0.200000*%
%ADD30C,0.254000*%
G04 APERTURE END LIST*
D10*
D11*
X125846858Y-118652857D02*
X125846858Y-117452857D01*
X126346858Y-118310000D01*
X126846858Y-117452857D01*
X126846858Y-118652857D01*
X127775430Y-118652857D02*
X127632572Y-118595714D01*
X127561144Y-118538571D01*
X127489715Y-118424286D01*
X127489715Y-118081429D01*
X127561144Y-117967143D01*
X127632572Y-117910000D01*
X127775430Y-117852857D01*
X127989715Y-117852857D01*
X128132572Y-117910000D01*
X128204001Y-117967143D01*
X128275430Y-118081429D01*
X128275430Y-118424286D01*
X128204001Y-118538571D01*
X128132572Y-118595714D01*
X127989715Y-118652857D01*
X127775430Y-118652857D01*
X128918287Y-118652857D02*
X128918287Y-117852857D01*
X128918287Y-118081429D02*
X128989715Y-117967143D01*
X129061144Y-117910000D01*
X129204001Y-117852857D01*
X129346858Y-117852857D01*
X129846858Y-117852857D02*
X129846858Y-119052857D01*
X129846858Y-117910000D02*
X129989715Y-117852857D01*
X130275429Y-117852857D01*
X130418286Y-117910000D01*
X130489715Y-117967143D01*
X130561144Y-118081429D01*
X130561144Y-118424286D01*
X130489715Y-118538571D01*
X130418286Y-118595714D01*
X130275429Y-118652857D01*
X129989715Y-118652857D01*
X129846858Y-118595714D01*
X131204001Y-118652857D02*
X131204001Y-117452857D01*
X131846858Y-118652857D02*
X131846858Y-118024286D01*
X131775429Y-117910000D01*
X131632572Y-117852857D01*
X131418287Y-117852857D01*
X131275429Y-117910000D01*
X131204001Y-117967143D01*
X133132572Y-118595714D02*
X132989715Y-118652857D01*
X132704001Y-118652857D01*
X132561144Y-118595714D01*
X132489715Y-118481429D01*
X132489715Y-118024286D01*
X132561144Y-117910000D01*
X132704001Y-117852857D01*
X132989715Y-117852857D01*
X133132572Y-117910000D01*
X133204001Y-118024286D01*
X133204001Y-118138571D01*
X132489715Y-118252857D01*
X134061144Y-118652857D02*
X133918286Y-118595714D01*
X133846858Y-118538571D01*
X133775429Y-118424286D01*
X133775429Y-118081429D01*
X133846858Y-117967143D01*
X133918286Y-117910000D01*
X134061144Y-117852857D01*
X134275429Y-117852857D01*
X134418286Y-117910000D01*
X134489715Y-117967143D01*
X134561144Y-118081429D01*
X134561144Y-118424286D01*
X134489715Y-118538571D01*
X134418286Y-118595714D01*
X134275429Y-118652857D01*
X134061144Y-118652857D01*
X135846858Y-117852857D02*
X135846858Y-118652857D01*
X135204001Y-117852857D02*
X135204001Y-118481429D01*
X135275429Y-118595714D01*
X135418287Y-118652857D01*
X135632572Y-118652857D01*
X135775429Y-118595714D01*
X135846858Y-118538571D01*
X136489715Y-118595714D02*
X136632572Y-118652857D01*
X136918287Y-118652857D01*
X137061144Y-118595714D01*
X137132572Y-118481429D01*
X137132572Y-118424286D01*
X137061144Y-118310000D01*
X136918287Y-118252857D01*
X136704001Y-118252857D01*
X136561144Y-118195714D01*
X136489715Y-118081429D01*
X136489715Y-118024286D01*
X136561144Y-117910000D01*
X136704001Y-117852857D01*
X136918287Y-117852857D01*
X137061144Y-117910000D01*
X139989715Y-117395714D02*
X138704001Y-118938571D01*
X141632573Y-118024286D02*
X142132573Y-118024286D01*
X142346859Y-118652857D02*
X141632573Y-118652857D01*
X141632573Y-117452857D01*
X142346859Y-117452857D01*
X143632573Y-118595714D02*
X143489716Y-118652857D01*
X143204002Y-118652857D01*
X143061144Y-118595714D01*
X142989716Y-118538571D01*
X142918287Y-118424286D01*
X142918287Y-118081429D01*
X142989716Y-117967143D01*
X143061144Y-117910000D01*
X143204002Y-117852857D01*
X143489716Y-117852857D01*
X143632573Y-117910000D01*
X144275430Y-118652857D02*
X144275430Y-117452857D01*
X144918287Y-118652857D02*
X144918287Y-118024286D01*
X144846858Y-117910000D01*
X144704001Y-117852857D01*
X144489716Y-117852857D01*
X144346858Y-117910000D01*
X144275430Y-117967143D01*
X145846859Y-118652857D02*
X145704001Y-118595714D01*
X145632573Y-118538571D01*
X145561144Y-118424286D01*
X145561144Y-118081429D01*
X145632573Y-117967143D01*
X145704001Y-117910000D01*
X145846859Y-117852857D01*
X146061144Y-117852857D01*
X146204001Y-117910000D01*
X146275430Y-117967143D01*
X146346859Y-118081429D01*
X146346859Y-118424286D01*
X146275430Y-118538571D01*
X146204001Y-118595714D01*
X146061144Y-118652857D01*
X145846859Y-118652857D01*
X148989716Y-118652857D02*
X148489716Y-118081429D01*
X148132573Y-118652857D02*
X148132573Y-117452857D01*
X148704001Y-117452857D01*
X148846859Y-117510000D01*
X148918287Y-117567143D01*
X148989716Y-117681429D01*
X148989716Y-117852857D01*
X148918287Y-117967143D01*
X148846859Y-118024286D01*
X148704001Y-118081429D01*
X148132573Y-118081429D01*
X150204001Y-118595714D02*
X150061144Y-118652857D01*
X149775430Y-118652857D01*
X149632573Y-118595714D01*
X149561144Y-118481429D01*
X149561144Y-118024286D01*
X149632573Y-117910000D01*
X149775430Y-117852857D01*
X150061144Y-117852857D01*
X150204001Y-117910000D01*
X150275430Y-118024286D01*
X150275430Y-118138571D01*
X149561144Y-118252857D01*
X150775430Y-117852857D02*
X151132573Y-118652857D01*
X151489715Y-117852857D01*
X151989715Y-118310000D02*
X152704001Y-118310000D01*
X151846858Y-118652857D02*
X152346858Y-117452857D01*
X152846858Y-118652857D01*
X154132572Y-118652857D02*
X153275429Y-118652857D01*
X153704001Y-118652857D02*
X153704001Y-117452857D01*
X153561144Y-117624286D01*
X153418286Y-117738571D01*
X153275429Y-117795714D01*
X124750287Y-92071000D02*
X125464573Y-92071000D01*
X124607430Y-92499571D02*
X125107430Y-90999571D01*
X125607430Y-92499571D01*
X126607430Y-91713857D02*
X126107430Y-91713857D01*
X126107430Y-92499571D02*
X126107430Y-90999571D01*
X126821716Y-90999571D01*
X127393144Y-91713857D02*
X127893144Y-91713857D01*
X128107430Y-92499571D02*
X127393144Y-92499571D01*
X127393144Y-90999571D01*
X128107430Y-90999571D01*
X129393144Y-91499571D02*
X129393144Y-92499571D01*
X129036001Y-90928143D02*
X128678858Y-91999571D01*
X129607430Y-91999571D01*
X130821715Y-91499571D02*
X130821715Y-92499571D01*
X130464572Y-90928143D02*
X130107429Y-91999571D01*
X131036001Y-91999571D01*
X131893143Y-90999571D02*
X132036000Y-90999571D01*
X132178857Y-91071000D01*
X132250286Y-91142429D01*
X132321715Y-91285286D01*
X132393143Y-91571000D01*
X132393143Y-91928143D01*
X132321715Y-92213857D01*
X132250286Y-92356714D01*
X132178857Y-92428143D01*
X132036000Y-92499571D01*
X131893143Y-92499571D01*
X131750286Y-92428143D01*
X131678857Y-92356714D01*
X131607429Y-92213857D01*
X131536000Y-91928143D01*
X131536000Y-91571000D01*
X131607429Y-91285286D01*
X131678857Y-91142429D01*
X131750286Y-91071000D01*
X131893143Y-90999571D01*
X133321714Y-90999571D02*
X133464571Y-90999571D01*
X133607428Y-91071000D01*
X133678857Y-91142429D01*
X133750286Y-91285286D01*
X133821714Y-91571000D01*
X133821714Y-91928143D01*
X133750286Y-92213857D01*
X133678857Y-92356714D01*
X133607428Y-92428143D01*
X133464571Y-92499571D01*
X133321714Y-92499571D01*
X133178857Y-92428143D01*
X133107428Y-92356714D01*
X133036000Y-92213857D01*
X132964571Y-91928143D01*
X132964571Y-91571000D01*
X133036000Y-91285286D01*
X133107428Y-91142429D01*
X133178857Y-91071000D01*
X133321714Y-90999571D01*
D12*
X133537960Y-97139760D03*
X133537960Y-98440240D03*
X131638040Y-97790000D03*
X127695960Y-93837760D03*
X127695960Y-95138240D03*
X125796040Y-94488000D03*
X130997960Y-111617760D03*
X130997960Y-112918240D03*
X129098040Y-112268000D03*
X130997960Y-114665760D03*
X130997960Y-115966240D03*
X129098040Y-115316000D03*
D13*
X139954000Y-93218000D03*
X145034000Y-93218000D03*
D14*
X136640000Y-101600000D03*
X135140000Y-101600000D03*
D15*
X135624000Y-104648000D03*
X134124000Y-104648000D03*
X148348000Y-109982000D03*
X149848000Y-109982000D03*
D14*
X135624000Y-106680000D03*
X134124000Y-106680000D03*
X135624000Y-108712000D03*
X134124000Y-108712000D03*
D16*
X139446000Y-100826000D03*
X139446000Y-99326000D03*
D14*
X140450000Y-97028000D03*
X138950000Y-97028000D03*
D16*
X140208000Y-111772000D03*
X140208000Y-113272000D03*
D14*
X144538000Y-97028000D03*
X146038000Y-97028000D03*
D16*
X143764000Y-111772000D03*
X143764000Y-113272000D03*
X144780000Y-100826000D03*
X144780000Y-99326000D03*
D17*
X147066000Y-100826000D03*
X147066000Y-99326000D03*
D18*
X140246100Y-102918260D03*
X140746480Y-102918260D03*
D19*
X141244320Y-102918260D03*
X141744700Y-102918260D03*
X142245080Y-102918260D03*
X142742920Y-102918260D03*
X143243300Y-102918260D03*
X143743680Y-102918260D03*
D18*
X144241520Y-102918260D03*
X144741900Y-102918260D03*
D20*
X145493740Y-103670100D03*
X145493740Y-104170480D03*
D21*
X145493740Y-104668320D03*
X145493740Y-105168700D03*
X145493740Y-105669080D03*
X145493740Y-106166920D03*
X145493740Y-106667300D03*
X145493740Y-107167680D03*
D20*
X145493740Y-107665520D03*
X145493740Y-108165900D03*
D18*
X144741900Y-108917740D03*
X144241520Y-108917740D03*
D19*
X143743680Y-108917740D03*
X143243300Y-108917740D03*
X142742920Y-108917740D03*
X142245080Y-108917740D03*
X141744700Y-108917740D03*
X141244320Y-108917740D03*
D18*
X140746480Y-108917740D03*
X140246100Y-108917740D03*
D20*
X139494260Y-108165900D03*
X139494260Y-107665520D03*
D21*
X139494260Y-107167680D03*
X139494260Y-106667300D03*
X139494260Y-106166920D03*
X139494260Y-105669080D03*
X139494260Y-105168700D03*
X139494260Y-104668320D03*
D20*
X139494260Y-104170480D03*
X139494260Y-103670100D03*
D22*
X142494000Y-105918000D03*
D23*
X133350000Y-94488000D03*
X146812000Y-116078000D03*
X151130000Y-95250000D03*
X138049000Y-112268000D03*
X134874000Y-115316000D03*
D24*
X125392000Y-102654000D03*
X127592000Y-102654000D03*
X125392000Y-101054000D03*
X127592000Y-101054000D03*
X107780000Y-102832000D03*
X105580000Y-102832000D03*
X107780000Y-104432000D03*
X105580000Y-104432000D03*
D23*
X153924000Y-99314000D03*
X153924000Y-101854000D03*
X153924000Y-96884000D03*
X153924000Y-104284000D03*
X153924000Y-109728000D03*
X153924000Y-112268000D03*
X153924000Y-107298000D03*
X153924000Y-114698000D03*
D25*
X105880000Y-112892000D03*
X105880000Y-113792000D03*
X105880000Y-114692000D03*
X107480000Y-114692000D03*
X107480000Y-113792000D03*
X107480000Y-112892000D03*
D23*
X150368000Y-99060000D03*
X151130000Y-112268000D03*
X149098000Y-103378000D03*
D26*
X125438000Y-112692000D03*
X125438000Y-114892000D03*
X127038000Y-112692000D03*
X127038000Y-114892000D03*
D27*
X132080000Y-113538000D03*
X132588000Y-107696000D03*
X128778000Y-96266000D03*
X136652000Y-96012000D03*
X148336000Y-95758000D03*
X143764000Y-115062000D03*
X142494000Y-104902000D03*
X141478000Y-105918000D03*
X143510000Y-104902000D03*
X141478000Y-106934000D03*
X142494000Y-106934000D03*
X143510000Y-106934000D03*
X143510000Y-105918000D03*
X141478000Y-104902000D03*
X138938000Y-102362000D03*
X142494000Y-105918000D03*
X140208000Y-101600000D03*
X143002000Y-101600000D03*
X129032000Y-113792000D03*
X133858000Y-100330000D03*
X132588000Y-103886000D03*
X105918000Y-112014000D03*
X104902000Y-111506000D03*
X104140000Y-109474000D03*
X109220000Y-109474000D03*
X108458000Y-111506000D03*
X107442000Y-112014000D03*
X132722000Y-110984400D03*
X142494000Y-110490000D03*
X147066000Y-109982000D03*
X147066000Y-103632000D03*
X105664000Y-105664000D03*
X107696000Y-105664000D03*
X127508000Y-102616000D03*
X129794000Y-98298000D03*
X127508000Y-101092000D03*
X127508000Y-98298000D03*
D28*
X105580000Y-102832000D02*
X104940000Y-102832000D01*
X104902000Y-105664000D02*
X104902000Y-106172000D01*
X104394000Y-105156000D02*
X104902000Y-105664000D01*
X104394000Y-103378000D02*
X104394000Y-105156000D01*
X104940000Y-102832000D02*
X104394000Y-103378000D01*
X107780000Y-102832000D02*
X108420000Y-102832000D01*
X108458000Y-105664000D02*
X108458000Y-106172000D01*
X108966000Y-105156000D02*
X108458000Y-105664000D01*
X108966000Y-103378000D02*
X108966000Y-105156000D01*
X108420000Y-102832000D02*
X108966000Y-103378000D01*
D29*
X139494200Y-106167000D02*
X139494300Y-106166900D01*
X139494000Y-106167000D02*
X139494200Y-106167000D01*
X139494200Y-105669000D02*
X139494300Y-105669100D01*
X139494000Y-105669000D02*
X139494200Y-105669000D01*
X139494200Y-108166000D02*
X139494300Y-108165900D01*
X139494000Y-108166000D02*
X139494200Y-108166000D01*
D28*
X139494260Y-106667300D02*
X135636700Y-106667300D01*
X135636700Y-106667300D02*
X135624000Y-106680000D01*
D29*
X139494000Y-106667000D02*
X139494300Y-106667300D01*
D28*
X130997960Y-112918240D02*
X131460240Y-112918240D01*
X131460240Y-112918240D02*
X132080000Y-113538000D01*
X134124000Y-106680000D02*
X133604000Y-106680000D01*
X133604000Y-106680000D02*
X132588000Y-107696000D01*
X142245080Y-102918260D02*
X142245080Y-105669080D01*
X142245080Y-105669080D02*
X142494000Y-105918000D01*
X144241520Y-102918260D02*
X144241520Y-104170480D01*
X144241520Y-104170480D02*
X142494000Y-105918000D01*
X139494260Y-107167680D02*
X141244320Y-107167680D01*
X141244320Y-107167680D02*
X142494000Y-105918000D01*
X127695960Y-95138240D02*
X127695960Y-95183960D01*
X127695960Y-95183960D02*
X128778000Y-96266000D01*
X138950000Y-97028000D02*
X137668000Y-97028000D01*
X137668000Y-97028000D02*
X136652000Y-96012000D01*
X146038000Y-97028000D02*
X147066000Y-97028000D01*
X147066000Y-97028000D02*
X148336000Y-95758000D01*
X143764000Y-113272000D02*
X143764000Y-115062000D01*
X142494000Y-105918000D02*
X142494000Y-104902000D01*
X142494000Y-105918000D02*
X141478000Y-105918000D01*
X142494000Y-105918000D02*
X142748000Y-105918000D01*
X142748000Y-105918000D02*
X143510000Y-104902000D01*
X141244320Y-107167680D02*
X141478000Y-106934000D01*
X142742920Y-107182920D02*
X142494000Y-106934000D01*
X144241520Y-108917740D02*
X144241520Y-107665520D01*
X144241520Y-107665520D02*
X143510000Y-106934000D01*
X143510000Y-105918000D02*
X142494000Y-105918000D01*
X141478000Y-104902000D02*
X142494000Y-105918000D01*
X140208000Y-102362000D02*
X138938000Y-102362000D01*
X140246000Y-102400000D02*
X140208000Y-102362000D01*
X140246000Y-102654000D02*
X140246000Y-102400000D01*
D29*
X140246000Y-102918000D02*
X140246000Y-102654000D01*
D28*
X142743000Y-106167000D02*
X142494000Y-105918000D01*
X134874000Y-115316000D02*
X134874000Y-115304000D01*
X141244000Y-107168000D02*
X142494000Y-105918000D01*
X141244000Y-108918000D02*
X141244000Y-107168000D01*
X140746000Y-108918000D02*
X141244000Y-108918000D01*
X139494000Y-104668000D02*
X141244000Y-104668000D01*
X141244000Y-107168000D02*
X142494000Y-105918000D01*
X140246000Y-102918000D02*
X140246000Y-102654000D01*
X139494260Y-107665520D02*
X137952480Y-107665520D01*
X136906000Y-108712000D02*
X135624000Y-108712000D01*
X137952480Y-107665520D02*
X136906000Y-108712000D01*
X139494000Y-107666000D02*
X139493800Y-107666000D01*
D29*
X139493800Y-107666000D02*
X139494300Y-107665500D01*
D28*
X143743680Y-102918260D02*
X143743680Y-101833680D01*
X143510000Y-101600000D02*
X143002000Y-101600000D01*
X143743680Y-101833680D02*
X143510000Y-101600000D01*
X140208000Y-101600000D02*
X140214000Y-101594000D01*
X140214000Y-101594000D02*
X140208000Y-101600000D01*
X140208000Y-101600000D02*
X140208000Y-101588000D01*
X133350000Y-94730000D02*
X139446000Y-100826000D01*
X133350000Y-94488000D02*
X133350000Y-94730000D01*
X133538000Y-97140000D02*
X133538000Y-97139800D01*
X133538000Y-94676000D02*
X133350000Y-94488000D01*
X133538000Y-97139800D02*
X133538000Y-94676000D01*
X143744000Y-103392000D02*
X143744000Y-102918000D01*
D29*
X143743700Y-103391700D02*
X143743700Y-102918300D01*
X143744000Y-103392000D02*
X143743700Y-103391700D01*
D28*
X140746000Y-102126000D02*
X140746000Y-103021000D01*
X139446000Y-100826000D02*
X140208000Y-101588000D01*
X140208000Y-101588000D02*
X140746000Y-102126000D01*
D29*
X140746500Y-103020500D02*
X140746500Y-102918300D01*
X140746000Y-103021000D02*
X140746500Y-103020500D01*
D28*
X127696000Y-93838000D02*
X127696200Y-93838000D01*
X132700000Y-93838000D02*
X133350000Y-94488000D01*
X127696200Y-93838000D02*
X132700000Y-93838000D01*
D29*
X127696200Y-93838000D02*
X127696000Y-93837800D01*
D28*
X140716000Y-96762000D02*
X140450000Y-97028000D01*
X140716000Y-93980000D02*
X140716000Y-96762000D01*
X139954000Y-93218000D02*
X140716000Y-93980000D01*
X141244000Y-102918000D02*
X141244000Y-100370000D01*
X141244000Y-97822000D02*
X140450000Y-97028000D01*
X141244000Y-100370000D02*
X141244000Y-97822000D01*
D29*
X141244300Y-100370300D02*
X141244300Y-102918300D01*
X141244000Y-100370000D02*
X141244300Y-100370300D01*
D28*
X140474000Y-111760000D02*
X138049000Y-112268000D01*
X140246000Y-108918000D02*
X140246000Y-110479000D01*
X140246000Y-111532000D02*
X140474000Y-111760000D01*
X140246000Y-110479000D02*
X140246000Y-111532000D01*
D29*
X140246100Y-110478900D02*
X140246100Y-108917700D01*
X140246000Y-110479000D02*
X140246100Y-110478900D01*
D28*
X144272000Y-96762000D02*
X144538000Y-97028000D01*
X144272000Y-93980000D02*
X144272000Y-96762000D01*
X145034000Y-93218000D02*
X144272000Y-93980000D01*
X141745000Y-102918000D02*
X141745000Y-100360500D01*
X142519000Y-97028000D02*
X144538000Y-97028000D01*
X141745000Y-97803000D02*
X142519000Y-97028000D01*
X141745000Y-100360500D02*
X141745000Y-97803000D01*
D29*
X141744700Y-100360800D02*
X141744700Y-102918300D01*
X141745000Y-100360500D02*
X141744700Y-100360800D01*
D28*
X130997960Y-111617760D02*
X132191760Y-111617760D01*
X132222240Y-114665760D02*
X130997960Y-114665760D01*
X132842000Y-114046000D02*
X132222240Y-114665760D01*
X132842000Y-112268000D02*
X132842000Y-114046000D01*
X132191760Y-111617760D02*
X132842000Y-112268000D01*
X143764000Y-111772000D02*
X144538000Y-111772000D01*
X146812000Y-114046000D02*
X146812000Y-116078000D01*
X144538000Y-111772000D02*
X146812000Y-114046000D01*
X129032000Y-113792000D02*
X130302000Y-113792000D01*
X130302000Y-113792000D02*
X130997960Y-114487960D01*
X130997960Y-114487960D02*
X130997960Y-114665760D01*
X146812000Y-116078000D02*
X146558000Y-116078000D01*
X130998200Y-114666000D02*
X130998000Y-114666000D01*
D29*
X130998200Y-114666000D02*
X130998000Y-114665800D01*
X143243300Y-108917700D02*
X143243300Y-108918000D01*
D28*
X143243000Y-108918000D02*
X143243300Y-108918000D01*
D29*
X143743700Y-108917700D02*
X143743700Y-108918000D01*
D28*
X143243300Y-108918000D02*
X143743700Y-108918000D01*
X143744000Y-110228000D02*
X143764000Y-111772000D01*
X143744000Y-108918000D02*
X143744000Y-110228000D01*
X143743700Y-108918000D02*
X143744000Y-108918000D01*
X130998000Y-111618000D02*
X130998200Y-111618000D01*
D29*
X130998200Y-111618000D02*
X130998000Y-111617800D01*
D28*
X147066000Y-99326000D02*
X147066000Y-99314000D01*
X147066000Y-99314000D02*
X149606000Y-96774000D01*
X149606000Y-96774000D02*
X151130000Y-95250000D01*
X144780000Y-100826000D02*
X145046000Y-100826000D01*
X145046000Y-100826000D02*
X146546000Y-99326000D01*
X146546000Y-99326000D02*
X147066000Y-99326000D01*
X144741900Y-102918260D02*
X144741900Y-100864100D01*
X144741900Y-100864100D02*
X144780000Y-100826000D01*
X144742000Y-102918000D02*
X144742000Y-102659000D01*
D29*
X144741900Y-102659100D02*
X144741900Y-102918300D01*
X144742000Y-102659000D02*
X144741900Y-102659100D01*
D28*
X149848000Y-109982000D02*
X149848000Y-110986000D01*
X149848000Y-110986000D02*
X151130000Y-112268000D01*
X145493740Y-105168700D02*
X150355300Y-105168700D01*
X152400000Y-98408000D02*
X153924000Y-96884000D01*
X152400000Y-99822000D02*
X152400000Y-98408000D01*
X150876000Y-101346000D02*
X152400000Y-99822000D01*
X150876000Y-104648000D02*
X150876000Y-101346000D01*
X150355300Y-105168700D02*
X150876000Y-104648000D01*
D29*
X145494000Y-105169000D02*
X145493700Y-105168700D01*
D28*
X145493740Y-105669080D02*
X150870920Y-105669080D01*
X151638000Y-101600000D02*
X153924000Y-99314000D01*
X151638000Y-104902000D02*
X151638000Y-101600000D01*
X150870920Y-105669080D02*
X151638000Y-104902000D01*
D29*
X145493800Y-105669000D02*
X145493700Y-105669100D01*
X145494000Y-105669000D02*
X145493800Y-105669000D01*
D28*
X145493740Y-106166920D02*
X151389080Y-106166920D01*
X152400000Y-103378000D02*
X153924000Y-101854000D01*
X152400000Y-105156000D02*
X152400000Y-103378000D01*
X151389080Y-106166920D02*
X152400000Y-105156000D01*
D29*
X145493800Y-106167000D02*
X145493700Y-106166900D01*
X145494000Y-106167000D02*
X145493800Y-106167000D01*
D28*
X145493740Y-106667300D02*
X151879300Y-106667300D01*
X151879300Y-106667300D02*
X153924000Y-104622600D01*
X153924000Y-104622600D02*
X153924000Y-104284000D01*
X153924000Y-104902000D02*
X153924000Y-104538000D01*
D29*
X145494000Y-106667000D02*
X145493700Y-106667300D01*
D28*
X147066000Y-100826000D02*
X148602000Y-100826000D01*
X148602000Y-100826000D02*
X150368000Y-99060000D01*
X145493740Y-103670100D02*
X145503900Y-103670100D01*
X145503900Y-103670100D02*
X147066000Y-102108000D01*
X147066000Y-102108000D02*
X147066000Y-100826000D01*
X145494000Y-103670000D02*
X145504000Y-103670000D01*
D29*
X145493800Y-103670000D02*
X145493700Y-103670100D01*
X145494000Y-103670000D02*
X145493800Y-103670000D01*
D28*
X145493740Y-104668320D02*
X147807680Y-104668320D01*
X147807680Y-104668320D02*
X149098000Y-103378000D01*
D29*
X145494000Y-104668000D02*
X145493700Y-104668300D01*
D28*
X145493740Y-107167680D02*
X153793680Y-107167680D01*
X153793680Y-107167680D02*
X153924000Y-107298000D01*
D29*
X145494000Y-107168000D02*
X145493700Y-107167700D01*
D28*
X145493740Y-107665520D02*
X151861520Y-107665520D01*
X151861520Y-107665520D02*
X153924000Y-109728000D01*
X145494000Y-107666000D02*
X145494200Y-107666000D01*
X153670000Y-109982000D02*
X153924000Y-109728000D01*
D29*
X145494200Y-107666000D02*
X145493700Y-107665500D01*
D28*
X145493740Y-108165900D02*
X151091900Y-108165900D01*
X152400000Y-110744000D02*
X153924000Y-112268000D01*
X152400000Y-109474000D02*
X152400000Y-110744000D01*
X151091900Y-108165900D02*
X152400000Y-109474000D01*
X153670000Y-112522000D02*
X153924000Y-112268000D01*
X144741900Y-108917740D02*
X144741900Y-108927900D01*
X144741900Y-108927900D02*
X150512000Y-114698000D01*
X150512000Y-114698000D02*
X153924000Y-114698000D01*
X144742000Y-109309000D02*
X144742000Y-109245500D01*
X144742000Y-109245500D02*
X144742000Y-109182000D01*
D29*
X144741900Y-109245400D02*
X144741900Y-108917700D01*
X144742000Y-109245500D02*
X144741900Y-109245400D01*
D28*
X133350000Y-104648000D02*
X132588000Y-103886000D01*
X134124000Y-104648000D02*
X133350000Y-104648000D01*
X135128000Y-101600000D02*
X135140000Y-101600000D01*
X133858000Y-100330000D02*
X135128000Y-101600000D01*
X134632000Y-102108000D02*
X135140000Y-101600000D01*
X134366000Y-102108000D02*
X134632000Y-102108000D01*
X133350000Y-101092000D02*
X134366000Y-102108000D01*
X129794000Y-101092000D02*
X133350000Y-101092000D01*
X128524000Y-99822000D02*
X129794000Y-101092000D01*
X125730000Y-99822000D02*
X128524000Y-99822000D01*
X125392000Y-100160000D02*
X125730000Y-99822000D01*
X125392000Y-101054000D02*
X125392000Y-100160000D01*
X125392000Y-103548000D02*
X125392000Y-102654000D01*
X125730000Y-103886000D02*
X125392000Y-103548000D01*
X128524000Y-103886000D02*
X125730000Y-103886000D01*
X129794000Y-102616000D02*
X128524000Y-103886000D01*
X132588000Y-102616000D02*
X129794000Y-102616000D01*
X134124000Y-104152000D02*
X132588000Y-102616000D01*
X134124000Y-104648000D02*
X134124000Y-104152000D01*
X125392000Y-101054000D02*
X125692000Y-101054000D01*
X105880000Y-112892000D02*
X105880000Y-112052000D01*
X105880000Y-112052000D02*
X105918000Y-112014000D01*
X105880000Y-113792000D02*
X105156000Y-113792000D01*
X104902000Y-113538000D02*
X104902000Y-111506000D01*
X105156000Y-113792000D02*
X104902000Y-113538000D01*
X105880000Y-114692000D02*
X104786000Y-114692000D01*
X104140000Y-114046000D02*
X104140000Y-109474000D01*
X104786000Y-114692000D02*
X104140000Y-114046000D01*
X109220000Y-109474000D02*
X109220000Y-114046000D01*
X109220000Y-114046000D02*
X108574000Y-114692000D01*
X108574000Y-114692000D02*
X107480000Y-114692000D01*
X108204000Y-113792000D02*
X107480000Y-113792000D01*
X108458000Y-113538000D02*
X108204000Y-113792000D01*
X108458000Y-111506000D02*
X108458000Y-113538000D01*
X107480000Y-112052000D02*
X107480000Y-112892000D01*
X107442000Y-112014000D02*
X107480000Y-112052000D01*
X129098040Y-112268000D02*
X127462000Y-112268000D01*
X127462000Y-112268000D02*
X127038000Y-112692000D01*
X127038000Y-112692000D02*
X125438000Y-112692000D01*
D29*
X129097700Y-112268000D02*
X130381300Y-110984400D01*
X130381300Y-110984400D02*
X132722000Y-110984400D01*
X142245100Y-108917700D02*
X142245100Y-109717100D01*
X142494000Y-110490000D02*
X142262600Y-109717100D01*
X142262600Y-109717100D02*
X142245100Y-109717100D01*
D28*
X129001500Y-112268000D02*
X128905000Y-112268000D01*
X129049800Y-112268000D02*
X129001500Y-112268000D01*
X129049800Y-112268000D02*
X129001500Y-112268000D01*
X129073900Y-112268000D02*
X129049800Y-112268000D01*
X129073900Y-112268000D02*
X129049800Y-112268000D01*
X129086000Y-112268000D02*
X129073900Y-112268000D01*
X129086000Y-112268000D02*
X129073900Y-112268000D01*
X129092000Y-112268000D02*
X129086000Y-112268000D01*
X129092000Y-112268000D02*
X129086000Y-112268000D01*
X129095000Y-112268000D02*
X129092000Y-112268000D01*
X129095000Y-112268000D02*
X129092000Y-112268000D01*
X129096500Y-112268000D02*
X129095000Y-112268000D01*
X129096500Y-112268000D02*
X129095000Y-112268000D01*
X129097300Y-112268000D02*
X129096500Y-112268000D01*
X129097300Y-112268000D02*
X129096500Y-112268000D01*
X129098000Y-112268000D02*
X129097700Y-112268000D01*
X129097700Y-112268000D02*
X129097300Y-112268000D01*
X129097700Y-112268000D02*
X129097300Y-112268000D01*
X129098040Y-115316000D02*
X127462000Y-115316000D01*
X127462000Y-115316000D02*
X127038000Y-114892000D01*
X127038000Y-114892000D02*
X125438000Y-114892000D01*
X142240000Y-115570000D02*
X142240000Y-111506000D01*
X129098040Y-116398040D02*
X129540000Y-116840000D01*
X129540000Y-116840000D02*
X140970000Y-116840000D01*
X140970000Y-116840000D02*
X142240000Y-115570000D01*
X129098040Y-115316000D02*
X129098040Y-116398040D01*
X141744700Y-111010700D02*
X141744700Y-108917740D01*
X142240000Y-111506000D02*
X141744700Y-111010700D01*
X141732000Y-108930000D02*
X141738500Y-108924000D01*
X141738500Y-108924000D02*
X141745000Y-108918000D01*
D29*
X141744700Y-108917800D02*
X141744700Y-108917700D01*
X141738500Y-108924000D02*
X141744700Y-108917800D01*
D28*
X136386000Y-103886000D02*
X135624000Y-104648000D01*
X137414000Y-103886000D02*
X136386000Y-103886000D01*
X138697000Y-105169000D02*
X137414000Y-103886000D01*
X139494000Y-105169000D02*
X138697000Y-105169000D01*
D29*
X139494000Y-105169000D02*
X139494300Y-105168700D01*
D28*
X145493740Y-104170480D02*
X146527520Y-104170480D01*
X147066000Y-109982000D02*
X148348000Y-109982000D01*
X146527520Y-104170480D02*
X147066000Y-103632000D01*
X145494000Y-104170000D02*
X145494200Y-104170000D01*
D29*
X145494200Y-104170000D02*
X145493700Y-104170500D01*
D28*
X105580000Y-104432000D02*
X105580000Y-105580000D01*
X105580000Y-105580000D02*
X105664000Y-105664000D01*
X107780000Y-104432000D02*
X107780000Y-105580000D01*
X107780000Y-105580000D02*
X107696000Y-105664000D01*
X131638040Y-97790000D02*
X130302000Y-97790000D01*
X127508000Y-102616000D02*
X127470000Y-102654000D01*
X130302000Y-97790000D02*
X129794000Y-98298000D01*
X127292000Y-102654000D02*
X127338000Y-102654000D01*
X127292000Y-102654000D02*
X127292000Y-102654000D01*
X127292000Y-102654000D02*
X127338000Y-102654000D01*
X139494000Y-104170000D02*
X139493800Y-104170000D01*
X128994000Y-102654000D02*
X127338000Y-102654000D01*
X129540000Y-102108000D02*
X128994000Y-102654000D01*
X132842000Y-102108000D02*
X129540000Y-102108000D01*
X134112000Y-103378000D02*
X132842000Y-102108000D01*
X137668000Y-103378000D02*
X134112000Y-103378000D01*
X138460000Y-104170000D02*
X137668000Y-103378000D01*
X139493800Y-104170000D02*
X138460000Y-104170000D01*
D29*
X139493800Y-104170000D02*
X139494300Y-104170500D01*
D28*
X125796040Y-94488000D02*
X125796040Y-96586040D01*
X127508000Y-101092000D02*
X127546000Y-101054000D01*
X125796040Y-96586040D02*
X127508000Y-98298000D01*
X127546000Y-101054000D02*
X127592000Y-101054000D01*
X127546000Y-101054000D02*
X127592000Y-101054000D01*
X128994000Y-101054000D02*
X127592000Y-101054000D01*
X129540000Y-101600000D02*
X128994000Y-101054000D01*
X133096000Y-101600000D02*
X129540000Y-101600000D01*
X134366000Y-102870000D02*
X133096000Y-101600000D01*
X137922000Y-102870000D02*
X134366000Y-102870000D01*
X138722000Y-103670000D02*
X137922000Y-102870000D01*
X139494000Y-103670000D02*
X138722000Y-103670000D01*
D29*
X139494200Y-103670000D02*
X139494300Y-103670100D01*
X139494000Y-103670000D02*
X139494200Y-103670000D01*
D28*
X127563000Y-100898000D02*
X127884000Y-101092000D01*
D29*
X127592000Y-100927000D02*
X127592000Y-101054000D01*
X127563000Y-100898000D02*
X127592000Y-100927000D01*
D30*
G36*
X155575000Y-118924000D02*
X155203286Y-118924000D01*
X155203286Y-116185000D01*
X154605334Y-116185000D01*
X154848655Y-116084462D01*
X155308846Y-115625073D01*
X155558206Y-115024547D01*
X155558774Y-114374306D01*
X155310462Y-113773345D01*
X155020520Y-113482897D01*
X155308846Y-113195073D01*
X155558206Y-112594547D01*
X155558774Y-111944306D01*
X155310462Y-111343345D01*
X154965520Y-110997801D01*
X155308846Y-110655073D01*
X155558206Y-110054547D01*
X155558774Y-109404306D01*
X155310462Y-108803345D01*
X155020520Y-108512897D01*
X155308846Y-108225073D01*
X155558206Y-107624547D01*
X155558774Y-106974306D01*
X155310462Y-106373345D01*
X154851073Y-105913154D01*
X154556912Y-105791008D01*
X154848655Y-105670462D01*
X155308846Y-105211073D01*
X155558206Y-104610547D01*
X155558774Y-103960306D01*
X155310462Y-103359345D01*
X155020520Y-103068897D01*
X155308846Y-102781073D01*
X155558206Y-102180547D01*
X155558774Y-101530306D01*
X155310462Y-100929345D01*
X154965520Y-100583801D01*
X155308846Y-100241073D01*
X155558206Y-99640547D01*
X155558774Y-98990306D01*
X155310462Y-98389345D01*
X155020520Y-98098897D01*
X155308846Y-97811073D01*
X155558206Y-97210547D01*
X155558774Y-96560306D01*
X155310462Y-95959345D01*
X154851073Y-95499154D01*
X154250547Y-95249794D01*
X153600306Y-95249226D01*
X152999345Y-95497538D01*
X152653767Y-95842514D01*
X152764206Y-95576547D01*
X152764774Y-94926306D01*
X152516462Y-94325345D01*
X152057073Y-93865154D01*
X151456547Y-93615794D01*
X150806306Y-93615226D01*
X150205345Y-93863538D01*
X149745154Y-94322927D01*
X149495794Y-94923453D01*
X149495226Y-95573694D01*
X149564309Y-95740889D01*
X146876638Y-98428560D01*
X146616000Y-98428560D01*
X146380683Y-98472838D01*
X146164559Y-98611910D01*
X146073432Y-98745279D01*
X146008599Y-98788599D01*
X145790000Y-99007198D01*
X145790000Y-98799691D01*
X145693327Y-98566302D01*
X145514699Y-98387673D01*
X145281310Y-98291000D01*
X145065750Y-98291000D01*
X144907000Y-98449750D01*
X144907000Y-99199000D01*
X144927000Y-99199000D01*
X144927000Y-99453000D01*
X144907000Y-99453000D01*
X144907000Y-99473000D01*
X144653000Y-99473000D01*
X144653000Y-99453000D01*
X143928750Y-99453000D01*
X143770000Y-99611750D01*
X143770000Y-99852309D01*
X143866673Y-100085698D01*
X143868043Y-100087068D01*
X143808569Y-100174110D01*
X143757560Y-100426000D01*
X143757560Y-100889243D01*
X143577957Y-100853518D01*
X143532327Y-100807808D01*
X143188799Y-100665162D01*
X142816833Y-100664838D01*
X142505000Y-100793684D01*
X142505000Y-98799691D01*
X143770000Y-98799691D01*
X143770000Y-99040250D01*
X143928750Y-99199000D01*
X144653000Y-99199000D01*
X144653000Y-98449750D01*
X144494250Y-98291000D01*
X144278690Y-98291000D01*
X144045301Y-98387673D01*
X143866673Y-98566302D01*
X143770000Y-98799691D01*
X142505000Y-98799691D01*
X142505000Y-98117515D01*
X142834090Y-97788000D01*
X143631156Y-97788000D01*
X143673910Y-97854441D01*
X143886110Y-97999431D01*
X144138000Y-98050440D01*
X144938000Y-98050440D01*
X145173317Y-98006162D01*
X145276646Y-97939671D01*
X145278302Y-97941327D01*
X145511691Y-98038000D01*
X145752250Y-98038000D01*
X145911000Y-97879250D01*
X145911000Y-97155000D01*
X146165000Y-97155000D01*
X146165000Y-97879250D01*
X146323750Y-98038000D01*
X146564309Y-98038000D01*
X146797698Y-97941327D01*
X146976327Y-97762699D01*
X147073000Y-97529310D01*
X147073000Y-97313750D01*
X146914250Y-97155000D01*
X146165000Y-97155000D01*
X145911000Y-97155000D01*
X145891000Y-97155000D01*
X145891000Y-96901000D01*
X145911000Y-96901000D01*
X145911000Y-96176750D01*
X146165000Y-96176750D01*
X146165000Y-96901000D01*
X146914250Y-96901000D01*
X147073000Y-96742250D01*
X147073000Y-96526690D01*
X146976327Y-96293301D01*
X146797698Y-96114673D01*
X146564309Y-96018000D01*
X146323750Y-96018000D01*
X146165000Y-96176750D01*
X145911000Y-96176750D01*
X145752250Y-96018000D01*
X145511691Y-96018000D01*
X145278302Y-96114673D01*
X145276932Y-96116043D01*
X145189890Y-96056569D01*
X145032000Y-96024595D01*
X145032000Y-94564199D01*
X145300601Y-94564434D01*
X145795565Y-94359919D01*
X146174588Y-93981557D01*
X146379966Y-93486951D01*
X146380434Y-92951399D01*
X146175919Y-92456435D01*
X145797557Y-92077412D01*
X145302951Y-91872034D01*
X144767399Y-91871566D01*
X144272435Y-92076081D01*
X143893412Y-92454443D01*
X143688034Y-92949049D01*
X143687566Y-93484601D01*
X143694814Y-93502142D01*
X143569852Y-93689161D01*
X143512000Y-93980000D01*
X143512000Y-96268000D01*
X142519000Y-96268000D01*
X142518755Y-96268049D01*
X142518510Y-96268000D01*
X142373425Y-96296957D01*
X142228161Y-96325852D01*
X142227953Y-96325991D01*
X142227708Y-96326040D01*
X142104726Y-96408328D01*
X141981599Y-96490599D01*
X141981460Y-96490807D01*
X141981252Y-96490946D01*
X141497440Y-96975383D01*
X141497440Y-96653000D01*
X141476000Y-96539056D01*
X141476000Y-93980000D01*
X141418148Y-93689161D01*
X141293477Y-93502578D01*
X141299966Y-93486951D01*
X141300434Y-92951399D01*
X141095919Y-92456435D01*
X140717557Y-92077412D01*
X140222951Y-91872034D01*
X139687399Y-91871566D01*
X139192435Y-92076081D01*
X138813412Y-92454443D01*
X138608034Y-92949049D01*
X138607566Y-93484601D01*
X138812081Y-93979565D01*
X139190443Y-94358588D01*
X139685049Y-94563966D01*
X139956000Y-94564203D01*
X139956000Y-96023247D01*
X139814683Y-96049838D01*
X139711354Y-96116329D01*
X139709698Y-96114673D01*
X139476309Y-96018000D01*
X139235750Y-96018000D01*
X139077000Y-96176750D01*
X139077000Y-96901000D01*
X139097000Y-96901000D01*
X139097000Y-97155000D01*
X139077000Y-97155000D01*
X139077000Y-97879250D01*
X139235750Y-98038000D01*
X139476309Y-98038000D01*
X139709698Y-97941327D01*
X139711068Y-97939957D01*
X139798110Y-97999431D01*
X140050000Y-98050440D01*
X140397638Y-98050440D01*
X140484000Y-98136802D01*
X140484000Y-100702202D01*
X140468440Y-100695741D01*
X140468440Y-100426000D01*
X140424162Y-100190683D01*
X140357671Y-100087354D01*
X140359327Y-100085698D01*
X140456000Y-99852309D01*
X140456000Y-99611750D01*
X140297250Y-99453000D01*
X139573000Y-99453000D01*
X139573000Y-99473000D01*
X139319000Y-99473000D01*
X139319000Y-99453000D01*
X139299000Y-99453000D01*
X139299000Y-99199000D01*
X139319000Y-99199000D01*
X139319000Y-98449750D01*
X139573000Y-98449750D01*
X139573000Y-99199000D01*
X140297250Y-99199000D01*
X140456000Y-99040250D01*
X140456000Y-98799691D01*
X140359327Y-98566302D01*
X140180699Y-98387673D01*
X139947310Y-98291000D01*
X139731750Y-98291000D01*
X139573000Y-98449750D01*
X139319000Y-98449750D01*
X139160250Y-98291000D01*
X138944690Y-98291000D01*
X138711301Y-98387673D01*
X138532673Y-98566302D01*
X138453132Y-98758330D01*
X137008552Y-97313750D01*
X137915000Y-97313750D01*
X137915000Y-97529310D01*
X138011673Y-97762699D01*
X138190302Y-97941327D01*
X138423691Y-98038000D01*
X138664250Y-98038000D01*
X138823000Y-97879250D01*
X138823000Y-97155000D01*
X138073750Y-97155000D01*
X137915000Y-97313750D01*
X137008552Y-97313750D01*
X136221492Y-96526690D01*
X137915000Y-96526690D01*
X137915000Y-96742250D01*
X138073750Y-96901000D01*
X138823000Y-96901000D01*
X138823000Y-96176750D01*
X138664250Y-96018000D01*
X138423691Y-96018000D01*
X138190302Y-96114673D01*
X138011673Y-96293301D01*
X137915000Y-96526690D01*
X136221492Y-96526690D01*
X134844881Y-95150079D01*
X134984206Y-94814547D01*
X134984774Y-94164306D01*
X134774746Y-93656000D01*
X134892428Y-93656000D01*
X134892428Y-90626000D01*
X155575000Y-90626000D01*
X155575000Y-118924000D01*
X155575000Y-118924000D01*
G37*
X155575000Y-118924000D02*
X155203286Y-118924000D01*
X155203286Y-116185000D01*
X154605334Y-116185000D01*
X154848655Y-116084462D01*
X155308846Y-115625073D01*
X155558206Y-115024547D01*
X155558774Y-114374306D01*
X155310462Y-113773345D01*
X155020520Y-113482897D01*
X155308846Y-113195073D01*
X155558206Y-112594547D01*
X155558774Y-111944306D01*
X155310462Y-111343345D01*
X154965520Y-110997801D01*
X155308846Y-110655073D01*
X155558206Y-110054547D01*
X155558774Y-109404306D01*
X155310462Y-108803345D01*
X155020520Y-108512897D01*
X155308846Y-108225073D01*
X155558206Y-107624547D01*
X155558774Y-106974306D01*
X155310462Y-106373345D01*
X154851073Y-105913154D01*
X154556912Y-105791008D01*
X154848655Y-105670462D01*
X155308846Y-105211073D01*
X155558206Y-104610547D01*
X155558774Y-103960306D01*
X155310462Y-103359345D01*
X155020520Y-103068897D01*
X155308846Y-102781073D01*
X155558206Y-102180547D01*
X155558774Y-101530306D01*
X155310462Y-100929345D01*
X154965520Y-100583801D01*
X155308846Y-100241073D01*
X155558206Y-99640547D01*
X155558774Y-98990306D01*
X155310462Y-98389345D01*
X155020520Y-98098897D01*
X155308846Y-97811073D01*
X155558206Y-97210547D01*
X155558774Y-96560306D01*
X155310462Y-95959345D01*
X154851073Y-95499154D01*
X154250547Y-95249794D01*
X153600306Y-95249226D01*
X152999345Y-95497538D01*
X152653767Y-95842514D01*
X152764206Y-95576547D01*
X152764774Y-94926306D01*
X152516462Y-94325345D01*
X152057073Y-93865154D01*
X151456547Y-93615794D01*
X150806306Y-93615226D01*
X150205345Y-93863538D01*
X149745154Y-94322927D01*
X149495794Y-94923453D01*
X149495226Y-95573694D01*
X149564309Y-95740889D01*
X146876638Y-98428560D01*
X146616000Y-98428560D01*
X146380683Y-98472838D01*
X146164559Y-98611910D01*
X146073432Y-98745279D01*
X146008599Y-98788599D01*
X145790000Y-99007198D01*
X145790000Y-98799691D01*
X145693327Y-98566302D01*
X145514699Y-98387673D01*
X145281310Y-98291000D01*
X145065750Y-98291000D01*
X144907000Y-98449750D01*
X144907000Y-99199000D01*
X144927000Y-99199000D01*
X144927000Y-99453000D01*
X144907000Y-99453000D01*
X144907000Y-99473000D01*
X144653000Y-99473000D01*
X144653000Y-99453000D01*
X143928750Y-99453000D01*
X143770000Y-99611750D01*
X143770000Y-99852309D01*
X143866673Y-100085698D01*
X143868043Y-100087068D01*
X143808569Y-100174110D01*
X143757560Y-100426000D01*
X143757560Y-100889243D01*
X143577957Y-100853518D01*
X143532327Y-100807808D01*
X143188799Y-100665162D01*
X142816833Y-100664838D01*
X142505000Y-100793684D01*
X142505000Y-98799691D01*
X143770000Y-98799691D01*
X143770000Y-99040250D01*
X143928750Y-99199000D01*
X144653000Y-99199000D01*
X144653000Y-98449750D01*
X144494250Y-98291000D01*
X144278690Y-98291000D01*
X144045301Y-98387673D01*
X143866673Y-98566302D01*
X143770000Y-98799691D01*
X142505000Y-98799691D01*
X142505000Y-98117515D01*
X142834090Y-97788000D01*
X143631156Y-97788000D01*
X143673910Y-97854441D01*
X143886110Y-97999431D01*
X144138000Y-98050440D01*
X144938000Y-98050440D01*
X145173317Y-98006162D01*
X145276646Y-97939671D01*
X145278302Y-97941327D01*
X145511691Y-98038000D01*
X145752250Y-98038000D01*
X145911000Y-97879250D01*
X145911000Y-97155000D01*
X146165000Y-97155000D01*
X146165000Y-97879250D01*
X146323750Y-98038000D01*
X146564309Y-98038000D01*
X146797698Y-97941327D01*
X146976327Y-97762699D01*
X147073000Y-97529310D01*
X147073000Y-97313750D01*
X146914250Y-97155000D01*
X146165000Y-97155000D01*
X145911000Y-97155000D01*
X145891000Y-97155000D01*
X145891000Y-96901000D01*
X145911000Y-96901000D01*
X145911000Y-96176750D01*
X146165000Y-96176750D01*
X146165000Y-96901000D01*
X146914250Y-96901000D01*
X147073000Y-96742250D01*
X147073000Y-96526690D01*
X146976327Y-96293301D01*
X146797698Y-96114673D01*
X146564309Y-96018000D01*
X146323750Y-96018000D01*
X146165000Y-96176750D01*
X145911000Y-96176750D01*
X145752250Y-96018000D01*
X145511691Y-96018000D01*
X145278302Y-96114673D01*
X145276932Y-96116043D01*
X145189890Y-96056569D01*
X145032000Y-96024595D01*
X145032000Y-94564199D01*
X145300601Y-94564434D01*
X145795565Y-94359919D01*
X146174588Y-93981557D01*
X146379966Y-93486951D01*
X146380434Y-92951399D01*
X146175919Y-92456435D01*
X145797557Y-92077412D01*
X145302951Y-91872034D01*
X144767399Y-91871566D01*
X144272435Y-92076081D01*
X143893412Y-92454443D01*
X143688034Y-92949049D01*
X143687566Y-93484601D01*
X143694814Y-93502142D01*
X143569852Y-93689161D01*
X143512000Y-93980000D01*
X143512000Y-96268000D01*
X142519000Y-96268000D01*
X142518755Y-96268049D01*
X142518510Y-96268000D01*
X142373425Y-96296957D01*
X142228161Y-96325852D01*
X142227953Y-96325991D01*
X142227708Y-96326040D01*
X142104726Y-96408328D01*
X141981599Y-96490599D01*
X141981460Y-96490807D01*
X141981252Y-96490946D01*
X141497440Y-96975383D01*
X141497440Y-96653000D01*
X141476000Y-96539056D01*
X141476000Y-93980000D01*
X141418148Y-93689161D01*
X141293477Y-93502578D01*
X141299966Y-93486951D01*
X141300434Y-92951399D01*
X141095919Y-92456435D01*
X140717557Y-92077412D01*
X140222951Y-91872034D01*
X139687399Y-91871566D01*
X139192435Y-92076081D01*
X138813412Y-92454443D01*
X138608034Y-92949049D01*
X138607566Y-93484601D01*
X138812081Y-93979565D01*
X139190443Y-94358588D01*
X139685049Y-94563966D01*
X139956000Y-94564203D01*
X139956000Y-96023247D01*
X139814683Y-96049838D01*
X139711354Y-96116329D01*
X139709698Y-96114673D01*
X139476309Y-96018000D01*
X139235750Y-96018000D01*
X139077000Y-96176750D01*
X139077000Y-96901000D01*
X139097000Y-96901000D01*
X139097000Y-97155000D01*
X139077000Y-97155000D01*
X139077000Y-97879250D01*
X139235750Y-98038000D01*
X139476309Y-98038000D01*
X139709698Y-97941327D01*
X139711068Y-97939957D01*
X139798110Y-97999431D01*
X140050000Y-98050440D01*
X140397638Y-98050440D01*
X140484000Y-98136802D01*
X140484000Y-100702202D01*
X140468440Y-100695741D01*
X140468440Y-100426000D01*
X140424162Y-100190683D01*
X140357671Y-100087354D01*
X140359327Y-100085698D01*
X140456000Y-99852309D01*
X140456000Y-99611750D01*
X140297250Y-99453000D01*
X139573000Y-99453000D01*
X139573000Y-99473000D01*
X139319000Y-99473000D01*
X139319000Y-99453000D01*
X139299000Y-99453000D01*
X139299000Y-99199000D01*
X139319000Y-99199000D01*
X139319000Y-98449750D01*
X139573000Y-98449750D01*
X139573000Y-99199000D01*
X140297250Y-99199000D01*
X140456000Y-99040250D01*
X140456000Y-98799691D01*
X140359327Y-98566302D01*
X140180699Y-98387673D01*
X139947310Y-98291000D01*
X139731750Y-98291000D01*
X139573000Y-98449750D01*
X139319000Y-98449750D01*
X139160250Y-98291000D01*
X138944690Y-98291000D01*
X138711301Y-98387673D01*
X138532673Y-98566302D01*
X138453132Y-98758330D01*
X137008552Y-97313750D01*
X137915000Y-97313750D01*
X137915000Y-97529310D01*
X138011673Y-97762699D01*
X138190302Y-97941327D01*
X138423691Y-98038000D01*
X138664250Y-98038000D01*
X138823000Y-97879250D01*
X138823000Y-97155000D01*
X138073750Y-97155000D01*
X137915000Y-97313750D01*
X137008552Y-97313750D01*
X136221492Y-96526690D01*
X137915000Y-96526690D01*
X137915000Y-96742250D01*
X138073750Y-96901000D01*
X138823000Y-96901000D01*
X138823000Y-96176750D01*
X138664250Y-96018000D01*
X138423691Y-96018000D01*
X138190302Y-96114673D01*
X138011673Y-96293301D01*
X137915000Y-96526690D01*
X136221492Y-96526690D01*
X134844881Y-95150079D01*
X134984206Y-94814547D01*
X134984774Y-94164306D01*
X134774746Y-93656000D01*
X134892428Y-93656000D01*
X134892428Y-90626000D01*
X155575000Y-90626000D01*
X155575000Y-118924000D01*
G36*
X146052000Y-114360802D02*
X146052000Y-114623504D01*
X145887345Y-114691538D01*
X145427154Y-115150927D01*
X145177794Y-115751453D01*
X145177415Y-116185000D01*
X142699802Y-116185000D01*
X142777401Y-116107401D01*
X142942148Y-115860840D01*
X143000000Y-115570000D01*
X143000000Y-114181026D01*
X143029301Y-114210327D01*
X143262690Y-114307000D01*
X143478250Y-114307000D01*
X143637000Y-114148250D01*
X143637000Y-113399000D01*
X143891000Y-113399000D01*
X143891000Y-114148250D01*
X144049750Y-114307000D01*
X144265310Y-114307000D01*
X144498699Y-114210327D01*
X144677327Y-114031698D01*
X144774000Y-113798309D01*
X144774000Y-113557750D01*
X144615250Y-113399000D01*
X143891000Y-113399000D01*
X143637000Y-113399000D01*
X143617000Y-113399000D01*
X143617000Y-113145000D01*
X143637000Y-113145000D01*
X143637000Y-113125000D01*
X143891000Y-113125000D01*
X143891000Y-113145000D01*
X144615250Y-113145000D01*
X144725724Y-113034526D01*
X146052000Y-114360802D01*
X146052000Y-114360802D01*
G37*
X146052000Y-114360802D02*
X146052000Y-114623504D01*
X145887345Y-114691538D01*
X145427154Y-115150927D01*
X145177794Y-115751453D01*
X145177415Y-116185000D01*
X142699802Y-116185000D01*
X142777401Y-116107401D01*
X142942148Y-115860840D01*
X143000000Y-115570000D01*
X143000000Y-114181026D01*
X143029301Y-114210327D01*
X143262690Y-114307000D01*
X143478250Y-114307000D01*
X143637000Y-114148250D01*
X143637000Y-113399000D01*
X143891000Y-113399000D01*
X143891000Y-114148250D01*
X144049750Y-114307000D01*
X144265310Y-114307000D01*
X144498699Y-114210327D01*
X144677327Y-114031698D01*
X144774000Y-113798309D01*
X144774000Y-113557750D01*
X144615250Y-113399000D01*
X143891000Y-113399000D01*
X143637000Y-113399000D01*
X143617000Y-113399000D01*
X143617000Y-113145000D01*
X143637000Y-113145000D01*
X143637000Y-113125000D01*
X143891000Y-113125000D01*
X143891000Y-113145000D01*
X144615250Y-113145000D01*
X144725724Y-113034526D01*
X146052000Y-114360802D01*
G36*
X133228599Y-115051582D02*
X133252659Y-115701377D01*
X133409489Y-116080000D01*
X130850960Y-116080000D01*
X130850960Y-115839240D01*
X130870960Y-115839240D01*
X130870960Y-115819240D01*
X131124960Y-115819240D01*
X131124960Y-115839240D01*
X131974590Y-115839240D01*
X132133340Y-115680490D01*
X132133340Y-115540211D01*
X132085933Y-115425760D01*
X132222240Y-115425760D01*
X132513079Y-115367908D01*
X132759641Y-115203161D01*
X133379401Y-114583401D01*
X133431472Y-114505471D01*
X133228599Y-115051582D01*
X133228599Y-115051582D01*
G37*
X133228599Y-115051582D02*
X133252659Y-115701377D01*
X133409489Y-116080000D01*
X130850960Y-116080000D01*
X130850960Y-115839240D01*
X130870960Y-115839240D01*
X130870960Y-115819240D01*
X131124960Y-115819240D01*
X131124960Y-115839240D01*
X131974590Y-115839240D01*
X132133340Y-115680490D01*
X132133340Y-115540211D01*
X132085933Y-115425760D01*
X132222240Y-115425760D01*
X132513079Y-115367908D01*
X132759641Y-115203161D01*
X133379401Y-114583401D01*
X133431472Y-114505471D01*
X133228599Y-115051582D01*
G36*
X131653162Y-103699201D02*
X131652838Y-104071167D01*
X131794883Y-104414943D01*
X132057673Y-104678192D01*
X132401201Y-104820838D01*
X132448077Y-104820879D01*
X132812599Y-105185401D01*
X133059161Y-105350148D01*
X133314329Y-105400905D01*
X133409910Y-105549441D01*
X133590633Y-105672924D01*
X133364302Y-105766673D01*
X133185673Y-105945301D01*
X133089000Y-106178690D01*
X133089000Y-106394250D01*
X133247750Y-106553000D01*
X133997000Y-106553000D01*
X133997000Y-106533000D01*
X134251000Y-106533000D01*
X134251000Y-106553000D01*
X134271000Y-106553000D01*
X134271000Y-106807000D01*
X134251000Y-106807000D01*
X134251000Y-107531250D01*
X134409750Y-107690000D01*
X134650309Y-107690000D01*
X134883698Y-107593327D01*
X134885068Y-107591957D01*
X134972110Y-107651431D01*
X135191031Y-107695764D01*
X134988683Y-107733838D01*
X134885354Y-107800329D01*
X134883698Y-107798673D01*
X134650309Y-107702000D01*
X134409750Y-107702000D01*
X134251000Y-107860750D01*
X134251000Y-108585000D01*
X134271000Y-108585000D01*
X134271000Y-108839000D01*
X134251000Y-108839000D01*
X134251000Y-109563250D01*
X134409750Y-109722000D01*
X134650309Y-109722000D01*
X134883698Y-109625327D01*
X134885068Y-109623957D01*
X134972110Y-109683431D01*
X135224000Y-109734440D01*
X136024000Y-109734440D01*
X136259317Y-109690162D01*
X136475441Y-109551090D01*
X136529481Y-109472000D01*
X136906000Y-109472000D01*
X137196839Y-109414148D01*
X137443401Y-109249401D01*
X138267282Y-108425520D01*
X138389572Y-108425520D01*
X138395021Y-108452913D01*
X138557601Y-108696230D01*
X138800918Y-108858810D01*
X139087931Y-108915900D01*
X139486418Y-108915900D01*
X139486000Y-108918000D01*
X139486000Y-110840704D01*
X139381559Y-110907910D01*
X139236569Y-111120110D01*
X139232529Y-111140058D01*
X138976073Y-110883154D01*
X138375547Y-110633794D01*
X137725306Y-110633226D01*
X137124345Y-110881538D01*
X136664154Y-111340927D01*
X136414794Y-111941453D01*
X136414226Y-112591694D01*
X136662538Y-113192655D01*
X137121927Y-113652846D01*
X137722453Y-113902206D01*
X138372694Y-113902774D01*
X138973655Y-113654462D01*
X139229561Y-113399002D01*
X139356748Y-113399002D01*
X139198000Y-113557750D01*
X139198000Y-113798309D01*
X139294673Y-114031698D01*
X139473301Y-114210327D01*
X139706690Y-114307000D01*
X139922250Y-114307000D01*
X140081000Y-114148250D01*
X140081000Y-113399000D01*
X140335000Y-113399000D01*
X140335000Y-114148250D01*
X140493750Y-114307000D01*
X140709310Y-114307000D01*
X140942699Y-114210327D01*
X141121327Y-114031698D01*
X141218000Y-113798309D01*
X141218000Y-113557750D01*
X141059250Y-113399000D01*
X140335000Y-113399000D01*
X140081000Y-113399000D01*
X140061000Y-113399000D01*
X140061000Y-113145000D01*
X140081000Y-113145000D01*
X140081000Y-113125000D01*
X140335000Y-113125000D01*
X140335000Y-113145000D01*
X141059250Y-113145000D01*
X141218000Y-112986250D01*
X141218000Y-112745691D01*
X141121327Y-112512302D01*
X141119957Y-112510932D01*
X141179431Y-112423890D01*
X141230440Y-112172000D01*
X141230440Y-111777897D01*
X141234000Y-111760000D01*
X141230440Y-111742103D01*
X141230440Y-111571242D01*
X141480000Y-111820802D01*
X141480000Y-115255198D01*
X140655198Y-116080000D01*
X136333813Y-116080000D01*
X136519401Y-115580418D01*
X136495341Y-114930623D01*
X136292965Y-114442042D01*
X136026163Y-114343443D01*
X135053605Y-115316000D01*
X135067748Y-115330142D01*
X134888142Y-115509748D01*
X134874000Y-115495605D01*
X134859858Y-115509748D01*
X134680252Y-115330142D01*
X134694395Y-115316000D01*
X133721837Y-114343443D01*
X133480024Y-114432807D01*
X133544148Y-114336839D01*
X133578560Y-114163837D01*
X133901443Y-114163837D01*
X134874000Y-115136395D01*
X135846557Y-114163837D01*
X135747958Y-113897035D01*
X135138418Y-113670599D01*
X134488623Y-113694659D01*
X134000042Y-113897035D01*
X133901443Y-114163837D01*
X133578560Y-114163837D01*
X133602000Y-114046000D01*
X133602000Y-112268000D01*
X133582381Y-112169370D01*
X133544148Y-111977160D01*
X133379401Y-111730599D01*
X133338708Y-111689906D01*
X133514192Y-111514727D01*
X133656838Y-111171199D01*
X133657162Y-110799233D01*
X133515117Y-110455457D01*
X133252327Y-110192208D01*
X132908799Y-110049562D01*
X132536833Y-110049238D01*
X132193057Y-110191283D01*
X132134838Y-110249400D01*
X130381300Y-110249400D01*
X130100028Y-110305349D01*
X129861577Y-110464676D01*
X129005414Y-111320840D01*
X128597660Y-111320840D01*
X128362343Y-111365118D01*
X128146219Y-111504190D01*
X128143616Y-111508000D01*
X128054438Y-111508000D01*
X127889890Y-111395569D01*
X127638000Y-111344560D01*
X126438000Y-111344560D01*
X126230658Y-111383574D01*
X126038000Y-111344560D01*
X124838000Y-111344560D01*
X124602683Y-111388838D01*
X124408000Y-111514113D01*
X124408000Y-108997750D01*
X133089000Y-108997750D01*
X133089000Y-109213310D01*
X133185673Y-109446699D01*
X133364302Y-109625327D01*
X133597691Y-109722000D01*
X133838250Y-109722000D01*
X133997000Y-109563250D01*
X133997000Y-108839000D01*
X133247750Y-108839000D01*
X133089000Y-108997750D01*
X124408000Y-108997750D01*
X124408000Y-108210690D01*
X133089000Y-108210690D01*
X133089000Y-108426250D01*
X133247750Y-108585000D01*
X133997000Y-108585000D01*
X133997000Y-107860750D01*
X133838250Y-107702000D01*
X133597691Y-107702000D01*
X133364302Y-107798673D01*
X133185673Y-107977301D01*
X133089000Y-108210690D01*
X124408000Y-108210690D01*
X124408000Y-106965750D01*
X133089000Y-106965750D01*
X133089000Y-107181310D01*
X133185673Y-107414699D01*
X133364302Y-107593327D01*
X133597691Y-107690000D01*
X133838250Y-107690000D01*
X133997000Y-107531250D01*
X133997000Y-106807000D01*
X133247750Y-106807000D01*
X133089000Y-106965750D01*
X124408000Y-106965750D01*
X124408000Y-103574500D01*
X124427910Y-103605441D01*
X124640110Y-103750431D01*
X124673616Y-103757216D01*
X124689852Y-103838839D01*
X124854599Y-104085401D01*
X125192599Y-104423401D01*
X125439160Y-104588148D01*
X125730000Y-104646000D01*
X128524000Y-104646000D01*
X128814839Y-104588148D01*
X129061401Y-104423401D01*
X130108802Y-103376000D01*
X131787367Y-103376000D01*
X131653162Y-103699201D01*
X131653162Y-103699201D01*
G37*
X131653162Y-103699201D02*
X131652838Y-104071167D01*
X131794883Y-104414943D01*
X132057673Y-104678192D01*
X132401201Y-104820838D01*
X132448077Y-104820879D01*
X132812599Y-105185401D01*
X133059161Y-105350148D01*
X133314329Y-105400905D01*
X133409910Y-105549441D01*
X133590633Y-105672924D01*
X133364302Y-105766673D01*
X133185673Y-105945301D01*
X133089000Y-106178690D01*
X133089000Y-106394250D01*
X133247750Y-106553000D01*
X133997000Y-106553000D01*
X133997000Y-106533000D01*
X134251000Y-106533000D01*
X134251000Y-106553000D01*
X134271000Y-106553000D01*
X134271000Y-106807000D01*
X134251000Y-106807000D01*
X134251000Y-107531250D01*
X134409750Y-107690000D01*
X134650309Y-107690000D01*
X134883698Y-107593327D01*
X134885068Y-107591957D01*
X134972110Y-107651431D01*
X135191031Y-107695764D01*
X134988683Y-107733838D01*
X134885354Y-107800329D01*
X134883698Y-107798673D01*
X134650309Y-107702000D01*
X134409750Y-107702000D01*
X134251000Y-107860750D01*
X134251000Y-108585000D01*
X134271000Y-108585000D01*
X134271000Y-108839000D01*
X134251000Y-108839000D01*
X134251000Y-109563250D01*
X134409750Y-109722000D01*
X134650309Y-109722000D01*
X134883698Y-109625327D01*
X134885068Y-109623957D01*
X134972110Y-109683431D01*
X135224000Y-109734440D01*
X136024000Y-109734440D01*
X136259317Y-109690162D01*
X136475441Y-109551090D01*
X136529481Y-109472000D01*
X136906000Y-109472000D01*
X137196839Y-109414148D01*
X137443401Y-109249401D01*
X138267282Y-108425520D01*
X138389572Y-108425520D01*
X138395021Y-108452913D01*
X138557601Y-108696230D01*
X138800918Y-108858810D01*
X139087931Y-108915900D01*
X139486418Y-108915900D01*
X139486000Y-108918000D01*
X139486000Y-110840704D01*
X139381559Y-110907910D01*
X139236569Y-111120110D01*
X139232529Y-111140058D01*
X138976073Y-110883154D01*
X138375547Y-110633794D01*
X137725306Y-110633226D01*
X137124345Y-110881538D01*
X136664154Y-111340927D01*
X136414794Y-111941453D01*
X136414226Y-112591694D01*
X136662538Y-113192655D01*
X137121927Y-113652846D01*
X137722453Y-113902206D01*
X138372694Y-113902774D01*
X138973655Y-113654462D01*
X139229561Y-113399002D01*
X139356748Y-113399002D01*
X139198000Y-113557750D01*
X139198000Y-113798309D01*
X139294673Y-114031698D01*
X139473301Y-114210327D01*
X139706690Y-114307000D01*
X139922250Y-114307000D01*
X140081000Y-114148250D01*
X140081000Y-113399000D01*
X140335000Y-113399000D01*
X140335000Y-114148250D01*
X140493750Y-114307000D01*
X140709310Y-114307000D01*
X140942699Y-114210327D01*
X141121327Y-114031698D01*
X141218000Y-113798309D01*
X141218000Y-113557750D01*
X141059250Y-113399000D01*
X140335000Y-113399000D01*
X140081000Y-113399000D01*
X140061000Y-113399000D01*
X140061000Y-113145000D01*
X140081000Y-113145000D01*
X140081000Y-113125000D01*
X140335000Y-113125000D01*
X140335000Y-113145000D01*
X141059250Y-113145000D01*
X141218000Y-112986250D01*
X141218000Y-112745691D01*
X141121327Y-112512302D01*
X141119957Y-112510932D01*
X141179431Y-112423890D01*
X141230440Y-112172000D01*
X141230440Y-111777897D01*
X141234000Y-111760000D01*
X141230440Y-111742103D01*
X141230440Y-111571242D01*
X141480000Y-111820802D01*
X141480000Y-115255198D01*
X140655198Y-116080000D01*
X136333813Y-116080000D01*
X136519401Y-115580418D01*
X136495341Y-114930623D01*
X136292965Y-114442042D01*
X136026163Y-114343443D01*
X135053605Y-115316000D01*
X135067748Y-115330142D01*
X134888142Y-115509748D01*
X134874000Y-115495605D01*
X134859858Y-115509748D01*
X134680252Y-115330142D01*
X134694395Y-115316000D01*
X133721837Y-114343443D01*
X133480024Y-114432807D01*
X133544148Y-114336839D01*
X133578560Y-114163837D01*
X133901443Y-114163837D01*
X134874000Y-115136395D01*
X135846557Y-114163837D01*
X135747958Y-113897035D01*
X135138418Y-113670599D01*
X134488623Y-113694659D01*
X134000042Y-113897035D01*
X133901443Y-114163837D01*
X133578560Y-114163837D01*
X133602000Y-114046000D01*
X133602000Y-112268000D01*
X133582381Y-112169370D01*
X133544148Y-111977160D01*
X133379401Y-111730599D01*
X133338708Y-111689906D01*
X133514192Y-111514727D01*
X133656838Y-111171199D01*
X133657162Y-110799233D01*
X133515117Y-110455457D01*
X133252327Y-110192208D01*
X132908799Y-110049562D01*
X132536833Y-110049238D01*
X132193057Y-110191283D01*
X132134838Y-110249400D01*
X130381300Y-110249400D01*
X130100028Y-110305349D01*
X129861577Y-110464676D01*
X129005414Y-111320840D01*
X128597660Y-111320840D01*
X128362343Y-111365118D01*
X128146219Y-111504190D01*
X128143616Y-111508000D01*
X128054438Y-111508000D01*
X127889890Y-111395569D01*
X127638000Y-111344560D01*
X126438000Y-111344560D01*
X126230658Y-111383574D01*
X126038000Y-111344560D01*
X124838000Y-111344560D01*
X124602683Y-111388838D01*
X124408000Y-111514113D01*
X124408000Y-108997750D01*
X133089000Y-108997750D01*
X133089000Y-109213310D01*
X133185673Y-109446699D01*
X133364302Y-109625327D01*
X133597691Y-109722000D01*
X133838250Y-109722000D01*
X133997000Y-109563250D01*
X133997000Y-108839000D01*
X133247750Y-108839000D01*
X133089000Y-108997750D01*
X124408000Y-108997750D01*
X124408000Y-108210690D01*
X133089000Y-108210690D01*
X133089000Y-108426250D01*
X133247750Y-108585000D01*
X133997000Y-108585000D01*
X133997000Y-107860750D01*
X133838250Y-107702000D01*
X133597691Y-107702000D01*
X133364302Y-107798673D01*
X133185673Y-107977301D01*
X133089000Y-108210690D01*
X124408000Y-108210690D01*
X124408000Y-106965750D01*
X133089000Y-106965750D01*
X133089000Y-107181310D01*
X133185673Y-107414699D01*
X133364302Y-107593327D01*
X133597691Y-107690000D01*
X133838250Y-107690000D01*
X133997000Y-107531250D01*
X133997000Y-106807000D01*
X133247750Y-106807000D01*
X133089000Y-106965750D01*
X124408000Y-106965750D01*
X124408000Y-103574500D01*
X124427910Y-103605441D01*
X124640110Y-103750431D01*
X124673616Y-103757216D01*
X124689852Y-103838839D01*
X124854599Y-104085401D01*
X125192599Y-104423401D01*
X125439160Y-104588148D01*
X125730000Y-104646000D01*
X128524000Y-104646000D01*
X128814839Y-104588148D01*
X129061401Y-104423401D01*
X130108802Y-103376000D01*
X131787367Y-103376000D01*
X131653162Y-103699201D01*
G36*
X132082000Y-113731198D02*
X131924509Y-113888689D01*
X131778781Y-113789117D01*
X131858039Y-113756287D01*
X132036667Y-113577658D01*
X132082000Y-113468215D01*
X132082000Y-113731198D01*
X132082000Y-113731198D01*
G37*
X132082000Y-113731198D02*
X131924509Y-113888689D01*
X131778781Y-113789117D01*
X131858039Y-113756287D01*
X132036667Y-113577658D01*
X132082000Y-113468215D01*
X132082000Y-113731198D01*
G36*
X131124960Y-112791240D02*
X131144960Y-112791240D01*
X131144960Y-113045240D01*
X131124960Y-113045240D01*
X131124960Y-113065240D01*
X130870960Y-113065240D01*
X130870960Y-113045240D01*
X130850960Y-113045240D01*
X130850960Y-112791240D01*
X130870960Y-112791240D01*
X130870960Y-112771240D01*
X131124960Y-112771240D01*
X131124960Y-112791240D01*
X131124960Y-112791240D01*
G37*
X131124960Y-112791240D02*
X131144960Y-112791240D01*
X131144960Y-113045240D01*
X131124960Y-113045240D01*
X131124960Y-113065240D01*
X130870960Y-113065240D01*
X130870960Y-113045240D01*
X130850960Y-113045240D01*
X130850960Y-112791240D01*
X130870960Y-112791240D01*
X130870960Y-112771240D01*
X131124960Y-112771240D01*
X131124960Y-112791240D01*
G36*
X142621000Y-105791000D02*
X142641000Y-105791000D01*
X142641000Y-106045000D01*
X142621000Y-106045000D01*
X142621000Y-106065000D01*
X142367000Y-106065000D01*
X142367000Y-106045000D01*
X142347000Y-106045000D01*
X142347000Y-105791000D01*
X142367000Y-105791000D01*
X142367000Y-105771000D01*
X142621000Y-105771000D01*
X142621000Y-105791000D01*
X142621000Y-105791000D01*
G37*
X142621000Y-105791000D02*
X142641000Y-105791000D01*
X142641000Y-106045000D01*
X142621000Y-106045000D01*
X142621000Y-106065000D01*
X142367000Y-106065000D01*
X142367000Y-106045000D01*
X142347000Y-106045000D01*
X142347000Y-105791000D01*
X142367000Y-105791000D01*
X142367000Y-105771000D01*
X142621000Y-105771000D01*
X142621000Y-105791000D01*
G36*
X131715226Y-94811694D02*
X131963538Y-95412655D01*
X132422927Y-95872846D01*
X132778000Y-96020285D01*
X132778000Y-96252491D01*
X132586139Y-96375950D01*
X132441149Y-96588150D01*
X132390140Y-96840040D01*
X132390140Y-96893815D01*
X132138420Y-96842840D01*
X131137660Y-96842840D01*
X130902343Y-96887118D01*
X130686219Y-97026190D01*
X130683616Y-97030000D01*
X130302000Y-97030000D01*
X130011161Y-97087852D01*
X129785864Y-97238390D01*
X129764599Y-97252599D01*
X129654320Y-97362878D01*
X129608833Y-97362838D01*
X129265057Y-97504883D01*
X129001808Y-97767673D01*
X128859162Y-98111201D01*
X128858838Y-98483167D01*
X129000883Y-98826943D01*
X129263673Y-99090192D01*
X129607201Y-99232838D01*
X129979167Y-99233162D01*
X130322943Y-99091117D01*
X130586192Y-98828327D01*
X130698392Y-98558121D01*
X130885770Y-98686151D01*
X131137660Y-98737160D01*
X132138420Y-98737160D01*
X132373737Y-98692882D01*
X132547504Y-98581066D01*
X132402580Y-98725990D01*
X132402580Y-98866269D01*
X132499253Y-99099658D01*
X132677881Y-99278287D01*
X132911270Y-99374960D01*
X133252210Y-99374960D01*
X133410960Y-99216210D01*
X133410960Y-98567240D01*
X133664960Y-98567240D01*
X133664960Y-99216210D01*
X133823710Y-99374960D01*
X134164650Y-99374960D01*
X134398039Y-99278287D01*
X134576667Y-99099658D01*
X134673340Y-98866269D01*
X134673340Y-98725990D01*
X134514590Y-98567240D01*
X133664960Y-98567240D01*
X133410960Y-98567240D01*
X133390960Y-98567240D01*
X133390960Y-98313240D01*
X133410960Y-98313240D01*
X133410960Y-98293240D01*
X133664960Y-98293240D01*
X133664960Y-98313240D01*
X134514590Y-98313240D01*
X134673340Y-98154490D01*
X134673340Y-98014211D01*
X134576667Y-97780822D01*
X134574875Y-97779030D01*
X134634771Y-97691370D01*
X134685780Y-97439480D01*
X134685780Y-97140582D01*
X138423560Y-100878362D01*
X138423560Y-101226000D01*
X138467838Y-101461317D01*
X138606910Y-101677441D01*
X138819110Y-101822431D01*
X139071000Y-101873440D01*
X139309312Y-101873440D01*
X139414883Y-102128943D01*
X139550390Y-102264687D01*
X139496100Y-102407150D01*
X139496100Y-102910418D01*
X139494000Y-102910000D01*
X139036802Y-102910000D01*
X138459401Y-102332599D01*
X138212839Y-102167852D01*
X137922000Y-102110000D01*
X137671400Y-102110000D01*
X137675000Y-102101310D01*
X137675000Y-101885750D01*
X137516250Y-101727000D01*
X136767000Y-101727000D01*
X136767000Y-101747000D01*
X136513000Y-101747000D01*
X136513000Y-101727000D01*
X136493000Y-101727000D01*
X136493000Y-101473000D01*
X136513000Y-101473000D01*
X136513000Y-100748750D01*
X136767000Y-100748750D01*
X136767000Y-101473000D01*
X137516250Y-101473000D01*
X137675000Y-101314250D01*
X137675000Y-101098690D01*
X137578327Y-100865301D01*
X137399698Y-100686673D01*
X137166309Y-100590000D01*
X136925750Y-100590000D01*
X136767000Y-100748750D01*
X136513000Y-100748750D01*
X136354250Y-100590000D01*
X136113691Y-100590000D01*
X135880302Y-100686673D01*
X135878932Y-100688043D01*
X135791890Y-100628569D01*
X135540000Y-100577560D01*
X135180362Y-100577560D01*
X134793122Y-100190320D01*
X134793162Y-100144833D01*
X134651117Y-99801057D01*
X134388327Y-99537808D01*
X134044799Y-99395162D01*
X133672833Y-99394838D01*
X133329057Y-99536883D01*
X133065808Y-99799673D01*
X132923162Y-100143201D01*
X132922998Y-100332000D01*
X130108802Y-100332000D01*
X129061401Y-99284599D01*
X128814839Y-99119852D01*
X128524000Y-99062000D01*
X128066111Y-99062000D01*
X128300192Y-98828327D01*
X128442838Y-98484799D01*
X128443162Y-98112833D01*
X128301117Y-97769057D01*
X128038327Y-97505808D01*
X127694799Y-97363162D01*
X127647923Y-97363121D01*
X126556040Y-96271238D01*
X126556040Y-95375243D01*
X126705504Y-95279066D01*
X126560580Y-95423990D01*
X126560580Y-95564269D01*
X126657253Y-95797658D01*
X126835881Y-95976287D01*
X127069270Y-96072960D01*
X127410210Y-96072960D01*
X127568960Y-95914210D01*
X127568960Y-95265240D01*
X127822960Y-95265240D01*
X127822960Y-95914210D01*
X127981710Y-96072960D01*
X128322650Y-96072960D01*
X128556039Y-95976287D01*
X128734667Y-95797658D01*
X128831340Y-95564269D01*
X128831340Y-95423990D01*
X128672590Y-95265240D01*
X127822960Y-95265240D01*
X127568960Y-95265240D01*
X127548960Y-95265240D01*
X127548960Y-95011240D01*
X127568960Y-95011240D01*
X127568960Y-94991240D01*
X127822960Y-94991240D01*
X127822960Y-95011240D01*
X128672590Y-95011240D01*
X128831340Y-94852490D01*
X128831340Y-94712211D01*
X128784032Y-94598000D01*
X131715413Y-94598000D01*
X131715226Y-94811694D01*
X131715226Y-94811694D01*
G37*
X131715226Y-94811694D02*
X131963538Y-95412655D01*
X132422927Y-95872846D01*
X132778000Y-96020285D01*
X132778000Y-96252491D01*
X132586139Y-96375950D01*
X132441149Y-96588150D01*
X132390140Y-96840040D01*
X132390140Y-96893815D01*
X132138420Y-96842840D01*
X131137660Y-96842840D01*
X130902343Y-96887118D01*
X130686219Y-97026190D01*
X130683616Y-97030000D01*
X130302000Y-97030000D01*
X130011161Y-97087852D01*
X129785864Y-97238390D01*
X129764599Y-97252599D01*
X129654320Y-97362878D01*
X129608833Y-97362838D01*
X129265057Y-97504883D01*
X129001808Y-97767673D01*
X128859162Y-98111201D01*
X128858838Y-98483167D01*
X129000883Y-98826943D01*
X129263673Y-99090192D01*
X129607201Y-99232838D01*
X129979167Y-99233162D01*
X130322943Y-99091117D01*
X130586192Y-98828327D01*
X130698392Y-98558121D01*
X130885770Y-98686151D01*
X131137660Y-98737160D01*
X132138420Y-98737160D01*
X132373737Y-98692882D01*
X132547504Y-98581066D01*
X132402580Y-98725990D01*
X132402580Y-98866269D01*
X132499253Y-99099658D01*
X132677881Y-99278287D01*
X132911270Y-99374960D01*
X133252210Y-99374960D01*
X133410960Y-99216210D01*
X133410960Y-98567240D01*
X133664960Y-98567240D01*
X133664960Y-99216210D01*
X133823710Y-99374960D01*
X134164650Y-99374960D01*
X134398039Y-99278287D01*
X134576667Y-99099658D01*
X134673340Y-98866269D01*
X134673340Y-98725990D01*
X134514590Y-98567240D01*
X133664960Y-98567240D01*
X133410960Y-98567240D01*
X133390960Y-98567240D01*
X133390960Y-98313240D01*
X133410960Y-98313240D01*
X133410960Y-98293240D01*
X133664960Y-98293240D01*
X133664960Y-98313240D01*
X134514590Y-98313240D01*
X134673340Y-98154490D01*
X134673340Y-98014211D01*
X134576667Y-97780822D01*
X134574875Y-97779030D01*
X134634771Y-97691370D01*
X134685780Y-97439480D01*
X134685780Y-97140582D01*
X138423560Y-100878362D01*
X138423560Y-101226000D01*
X138467838Y-101461317D01*
X138606910Y-101677441D01*
X138819110Y-101822431D01*
X139071000Y-101873440D01*
X139309312Y-101873440D01*
X139414883Y-102128943D01*
X139550390Y-102264687D01*
X139496100Y-102407150D01*
X139496100Y-102910418D01*
X139494000Y-102910000D01*
X139036802Y-102910000D01*
X138459401Y-102332599D01*
X138212839Y-102167852D01*
X137922000Y-102110000D01*
X137671400Y-102110000D01*
X137675000Y-102101310D01*
X137675000Y-101885750D01*
X137516250Y-101727000D01*
X136767000Y-101727000D01*
X136767000Y-101747000D01*
X136513000Y-101747000D01*
X136513000Y-101727000D01*
X136493000Y-101727000D01*
X136493000Y-101473000D01*
X136513000Y-101473000D01*
X136513000Y-100748750D01*
X136767000Y-100748750D01*
X136767000Y-101473000D01*
X137516250Y-101473000D01*
X137675000Y-101314250D01*
X137675000Y-101098690D01*
X137578327Y-100865301D01*
X137399698Y-100686673D01*
X137166309Y-100590000D01*
X136925750Y-100590000D01*
X136767000Y-100748750D01*
X136513000Y-100748750D01*
X136354250Y-100590000D01*
X136113691Y-100590000D01*
X135880302Y-100686673D01*
X135878932Y-100688043D01*
X135791890Y-100628569D01*
X135540000Y-100577560D01*
X135180362Y-100577560D01*
X134793122Y-100190320D01*
X134793162Y-100144833D01*
X134651117Y-99801057D01*
X134388327Y-99537808D01*
X134044799Y-99395162D01*
X133672833Y-99394838D01*
X133329057Y-99536883D01*
X133065808Y-99799673D01*
X132923162Y-100143201D01*
X132922998Y-100332000D01*
X130108802Y-100332000D01*
X129061401Y-99284599D01*
X128814839Y-99119852D01*
X128524000Y-99062000D01*
X128066111Y-99062000D01*
X128300192Y-98828327D01*
X128442838Y-98484799D01*
X128443162Y-98112833D01*
X128301117Y-97769057D01*
X128038327Y-97505808D01*
X127694799Y-97363162D01*
X127647923Y-97363121D01*
X126556040Y-96271238D01*
X126556040Y-95375243D01*
X126705504Y-95279066D01*
X126560580Y-95423990D01*
X126560580Y-95564269D01*
X126657253Y-95797658D01*
X126835881Y-95976287D01*
X127069270Y-96072960D01*
X127410210Y-96072960D01*
X127568960Y-95914210D01*
X127568960Y-95265240D01*
X127822960Y-95265240D01*
X127822960Y-95914210D01*
X127981710Y-96072960D01*
X128322650Y-96072960D01*
X128556039Y-95976287D01*
X128734667Y-95797658D01*
X128831340Y-95564269D01*
X128831340Y-95423990D01*
X128672590Y-95265240D01*
X127822960Y-95265240D01*
X127568960Y-95265240D01*
X127548960Y-95265240D01*
X127548960Y-95011240D01*
X127568960Y-95011240D01*
X127568960Y-94991240D01*
X127822960Y-94991240D01*
X127822960Y-95011240D01*
X128672590Y-95011240D01*
X128831340Y-94852490D01*
X128831340Y-94712211D01*
X128784032Y-94598000D01*
X131715413Y-94598000D01*
X131715226Y-94811694D01*
M02*
