G04 #@! TF.FileFunction,Copper,L2,Bot,Signal*
%FSLAX46Y46*%
G04 Gerber Fmt 4.6, Leading zero omitted, Abs format (unit mm)*
G04 Created by KiCad (PCBNEW 4.0.0-rc1-stable) date 11/18/2015 12:21:30 AM*
%MOMM*%
G01*
G04 APERTURE LIST*
%ADD10C,0.100000*%
%ADD11R,0.500000X0.500000*%
%ADD12C,1.998980*%
%ADD13C,0.600000*%
%ADD14C,0.250000*%
%ADD15C,0.200000*%
%ADD16C,0.254000*%
G04 APERTURE END LIST*
D10*
D11*
X105780000Y-110712000D03*
X105780000Y-109402000D03*
X105780000Y-108022000D03*
X105780000Y-106712000D03*
X107580000Y-106712000D03*
X107580000Y-108022000D03*
X107580000Y-109402000D03*
X107580000Y-110712000D03*
D12*
X133350000Y-94488000D03*
X146812000Y-116078000D03*
X151130000Y-95250000D03*
X138049000Y-112268000D03*
X134874000Y-115316000D03*
X153924000Y-99314000D03*
X153924000Y-101854000D03*
X153924000Y-96884000D03*
X153924000Y-104284000D03*
X153924000Y-109728000D03*
X153924000Y-112268000D03*
X153924000Y-107298000D03*
X153924000Y-114698000D03*
X150368000Y-99060000D03*
X151130000Y-112268000D03*
X149098000Y-103378000D03*
D13*
X139446000Y-102108000D03*
X132080000Y-113538000D03*
X132588000Y-107696000D03*
X128778000Y-96266000D03*
X136652000Y-96012000D03*
X148336000Y-95758000D03*
X143764000Y-115062000D03*
X142494000Y-104902000D03*
X141478000Y-105918000D03*
X143510000Y-104902000D03*
X141478000Y-106934000D03*
X142494000Y-106934000D03*
X143510000Y-106934000D03*
X143510000Y-105918000D03*
X141478000Y-104902000D03*
X142494000Y-105918000D03*
X140208000Y-101600000D03*
X143002000Y-101600000D03*
X129032000Y-113792000D03*
X133858000Y-100330000D03*
X132588000Y-103886000D03*
X105918000Y-112014000D03*
X104902000Y-111506000D03*
X104140000Y-109474000D03*
X109220000Y-109474000D03*
X108458000Y-111506000D03*
X107442000Y-112014000D03*
X132722000Y-110984400D03*
X142494000Y-110490000D03*
X147066000Y-109982000D03*
X147066000Y-103632000D03*
X105664000Y-105664000D03*
X107696000Y-105664000D03*
X127508000Y-102616000D03*
X129794000Y-98298000D03*
X127508000Y-101092000D03*
X127508000Y-98298000D03*
D14*
X143002000Y-101600000D02*
X140208000Y-101600000D01*
X146812000Y-116078000D02*
X145542000Y-118110000D01*
X145542000Y-118110000D02*
X132080000Y-118110000D01*
X132080000Y-118110000D02*
X129032000Y-113792000D01*
X133096000Y-101092000D02*
X133858000Y-100330000D01*
X133096000Y-103378000D02*
X133096000Y-101092000D01*
X132588000Y-103886000D02*
X133096000Y-103378000D01*
X105780000Y-111876000D02*
X105780000Y-110712000D01*
X105918000Y-112014000D02*
X105780000Y-111876000D01*
X105482000Y-109402000D02*
X105780000Y-109402000D01*
X104902000Y-109982000D02*
X105482000Y-109402000D01*
X104902000Y-111506000D02*
X104902000Y-109982000D01*
X104140000Y-109474000D02*
X105592000Y-108022000D01*
X105592000Y-108022000D02*
X105780000Y-108022000D01*
X107580000Y-108022000D02*
X107768000Y-108022000D01*
X107768000Y-108022000D02*
X109220000Y-109474000D01*
X107580000Y-109402000D02*
X107878000Y-109402000D01*
X108458000Y-109982000D02*
X108458000Y-111506000D01*
X107878000Y-109402000D02*
X108458000Y-109982000D01*
X107580000Y-110712000D02*
X107580000Y-111876000D01*
X107580000Y-111876000D02*
X107442000Y-112014000D01*
D15*
X142494000Y-110490000D02*
X133272400Y-110434000D01*
X133272400Y-110434000D02*
X132722000Y-110984400D01*
D14*
X147066000Y-103632000D02*
X147066000Y-109982000D01*
X105780000Y-105780000D02*
X105780000Y-106712000D01*
X105664000Y-105664000D02*
X105780000Y-105780000D01*
X107580000Y-105780000D02*
X107580000Y-106712000D01*
X107696000Y-105664000D02*
X107580000Y-105780000D01*
X128270000Y-102616000D02*
X127508000Y-102616000D01*
X129794000Y-101092000D02*
X128270000Y-102616000D01*
X129794000Y-98298000D02*
X129794000Y-101092000D01*
X127508000Y-98298000D02*
X127508000Y-101092000D01*
D16*
G36*
X155575000Y-118924000D02*
X124408000Y-118924000D01*
X124408000Y-113977167D01*
X128096838Y-113977167D01*
X128238883Y-114320943D01*
X128501673Y-114584192D01*
X128726958Y-114677739D01*
X131459105Y-118548280D01*
X131506376Y-118593189D01*
X131542599Y-118647401D01*
X131612843Y-118694337D01*
X131674090Y-118752523D01*
X131734947Y-118775924D01*
X131789161Y-118812148D01*
X131872017Y-118828629D01*
X131950871Y-118858950D01*
X132016053Y-118857280D01*
X132080000Y-118870000D01*
X145542000Y-118870000D01*
X145626638Y-118853164D01*
X145712893Y-118850537D01*
X145770680Y-118824512D01*
X145832839Y-118812148D01*
X145904591Y-118764205D01*
X145983276Y-118728769D01*
X146026705Y-118682611D01*
X146079401Y-118647401D01*
X146127343Y-118575650D01*
X146186479Y-118512799D01*
X146686740Y-117712382D01*
X147135694Y-117712774D01*
X147736655Y-117464462D01*
X148196846Y-117005073D01*
X148446206Y-116404547D01*
X148446774Y-115754306D01*
X148198462Y-115153345D01*
X147739073Y-114693154D01*
X147138547Y-114443794D01*
X146488306Y-114443226D01*
X145887345Y-114691538D01*
X145427154Y-115150927D01*
X145177794Y-115751453D01*
X145177226Y-116401694D01*
X145390644Y-116918205D01*
X145120772Y-117350000D01*
X132473799Y-117350000D01*
X131851327Y-116468163D01*
X133901443Y-116468163D01*
X134000042Y-116734965D01*
X134609582Y-116961401D01*
X135259377Y-116937341D01*
X135747958Y-116734965D01*
X135846557Y-116468163D01*
X134874000Y-115495605D01*
X133901443Y-116468163D01*
X131851327Y-116468163D01*
X130851387Y-115051582D01*
X133228599Y-115051582D01*
X133252659Y-115701377D01*
X133455035Y-116189958D01*
X133721837Y-116288557D01*
X134694395Y-115316000D01*
X135053605Y-115316000D01*
X136026163Y-116288557D01*
X136292965Y-116189958D01*
X136519401Y-115580418D01*
X136495341Y-114930623D01*
X136292965Y-114442042D01*
X136026163Y-114343443D01*
X135053605Y-115316000D01*
X134694395Y-115316000D01*
X133721837Y-114343443D01*
X133455035Y-114442042D01*
X133228599Y-115051582D01*
X130851387Y-115051582D01*
X130224744Y-114163837D01*
X133901443Y-114163837D01*
X134874000Y-115136395D01*
X135846557Y-114163837D01*
X135747958Y-113897035D01*
X135138418Y-113670599D01*
X134488623Y-113694659D01*
X134000042Y-113897035D01*
X133901443Y-114163837D01*
X130224744Y-114163837D01*
X129966995Y-113798694D01*
X129967162Y-113606833D01*
X129825117Y-113263057D01*
X129562327Y-112999808D01*
X129218799Y-112857162D01*
X128846833Y-112856838D01*
X128503057Y-112998883D01*
X128239808Y-113261673D01*
X128097162Y-113605201D01*
X128096838Y-113977167D01*
X124408000Y-113977167D01*
X124408000Y-111169567D01*
X131786838Y-111169567D01*
X131928883Y-111513343D01*
X132191673Y-111776592D01*
X132535201Y-111919238D01*
X132907167Y-111919562D01*
X133250943Y-111777517D01*
X133514192Y-111514727D01*
X133656776Y-111171347D01*
X136814818Y-111190525D01*
X136664154Y-111340927D01*
X136414794Y-111941453D01*
X136414226Y-112591694D01*
X136662538Y-113192655D01*
X137121927Y-113652846D01*
X137722453Y-113902206D01*
X138372694Y-113902774D01*
X138973655Y-113654462D01*
X139433846Y-113195073D01*
X139683206Y-112594547D01*
X139683774Y-111944306D01*
X139435462Y-111343345D01*
X139297962Y-111205605D01*
X141903011Y-111221424D01*
X141963673Y-111282192D01*
X142307201Y-111424838D01*
X142679167Y-111425162D01*
X143022943Y-111283117D01*
X143286192Y-111020327D01*
X143428838Y-110676799D01*
X143429162Y-110304833D01*
X143287117Y-109961057D01*
X143024327Y-109697808D01*
X142680799Y-109555162D01*
X142308833Y-109554838D01*
X141965057Y-109696883D01*
X141910402Y-109751443D01*
X133276863Y-109699014D01*
X133274629Y-109699444D01*
X133272400Y-109699001D01*
X133133995Y-109726531D01*
X132995257Y-109753253D01*
X132993358Y-109754505D01*
X132991128Y-109754949D01*
X132873662Y-109833437D01*
X132755843Y-109911131D01*
X132754570Y-109913012D01*
X132752676Y-109914277D01*
X132617645Y-110049308D01*
X132536833Y-110049238D01*
X132193057Y-110191283D01*
X131929808Y-110454073D01*
X131787162Y-110797601D01*
X131786838Y-111169567D01*
X124408000Y-111169567D01*
X124408000Y-104071167D01*
X131652838Y-104071167D01*
X131794883Y-104414943D01*
X132057673Y-104678192D01*
X132401201Y-104820838D01*
X132773167Y-104821162D01*
X133116943Y-104679117D01*
X133380192Y-104416327D01*
X133522838Y-104072799D01*
X133522879Y-104025923D01*
X133633401Y-103915401D01*
X133699039Y-103817167D01*
X146130838Y-103817167D01*
X146272883Y-104160943D01*
X146306000Y-104194118D01*
X146306000Y-109419537D01*
X146273808Y-109451673D01*
X146131162Y-109795201D01*
X146130838Y-110167167D01*
X146272883Y-110510943D01*
X146535673Y-110774192D01*
X146879201Y-110916838D01*
X147251167Y-110917162D01*
X147594943Y-110775117D01*
X147858192Y-110512327D01*
X148000838Y-110168799D01*
X148001162Y-109796833D01*
X147859117Y-109453057D01*
X147826000Y-109419882D01*
X147826000Y-104417317D01*
X148170927Y-104762846D01*
X148771453Y-105012206D01*
X149421694Y-105012774D01*
X150022655Y-104764462D01*
X150482846Y-104305073D01*
X150732206Y-103704547D01*
X150732774Y-103054306D01*
X150484462Y-102453345D01*
X150025073Y-101993154D01*
X149424547Y-101743794D01*
X148774306Y-101743226D01*
X148173345Y-101991538D01*
X147713154Y-102450927D01*
X147558243Y-102823994D01*
X147252799Y-102697162D01*
X146880833Y-102696838D01*
X146537057Y-102838883D01*
X146273808Y-103101673D01*
X146131162Y-103445201D01*
X146130838Y-103817167D01*
X133699039Y-103817167D01*
X133798148Y-103668839D01*
X133856000Y-103378000D01*
X133856000Y-101785167D01*
X139272838Y-101785167D01*
X139414883Y-102128943D01*
X139677673Y-102392192D01*
X140021201Y-102534838D01*
X140393167Y-102535162D01*
X140736943Y-102393117D01*
X140770118Y-102360000D01*
X142439537Y-102360000D01*
X142471673Y-102392192D01*
X142815201Y-102534838D01*
X143187167Y-102535162D01*
X143530943Y-102393117D01*
X143794192Y-102130327D01*
X143936838Y-101786799D01*
X143937162Y-101414833D01*
X143795117Y-101071057D01*
X143532327Y-100807808D01*
X143188799Y-100665162D01*
X142816833Y-100664838D01*
X142473057Y-100806883D01*
X142439882Y-100840000D01*
X140770463Y-100840000D01*
X140738327Y-100807808D01*
X140394799Y-100665162D01*
X140022833Y-100664838D01*
X139679057Y-100806883D01*
X139415808Y-101069673D01*
X139273162Y-101413201D01*
X139272838Y-101785167D01*
X133856000Y-101785167D01*
X133856000Y-101406802D01*
X133997680Y-101265122D01*
X134043167Y-101265162D01*
X134386943Y-101123117D01*
X134650192Y-100860327D01*
X134792838Y-100516799D01*
X134793162Y-100144833D01*
X134651117Y-99801057D01*
X134388327Y-99537808D01*
X134044799Y-99395162D01*
X133672833Y-99394838D01*
X133329057Y-99536883D01*
X133065808Y-99799673D01*
X132923162Y-100143201D01*
X132923121Y-100190077D01*
X132558599Y-100554599D01*
X132393852Y-100801161D01*
X132336000Y-101092000D01*
X132336000Y-102978453D01*
X132059057Y-103092883D01*
X131795808Y-103355673D01*
X131653162Y-103699201D01*
X131652838Y-104071167D01*
X124408000Y-104071167D01*
X124408000Y-98483167D01*
X126572838Y-98483167D01*
X126714883Y-98826943D01*
X126748000Y-98860118D01*
X126748000Y-100529537D01*
X126715808Y-100561673D01*
X126573162Y-100905201D01*
X126572838Y-101277167D01*
X126714883Y-101620943D01*
X126947709Y-101854176D01*
X126715808Y-102085673D01*
X126573162Y-102429201D01*
X126572838Y-102801167D01*
X126714883Y-103144943D01*
X126977673Y-103408192D01*
X127321201Y-103550838D01*
X127693167Y-103551162D01*
X128036943Y-103409117D01*
X128070118Y-103376000D01*
X128270000Y-103376000D01*
X128560839Y-103318148D01*
X128807401Y-103153401D01*
X130331401Y-101629401D01*
X130496148Y-101382840D01*
X130505746Y-101334586D01*
X130554000Y-101092000D01*
X130554000Y-99383694D01*
X148733226Y-99383694D01*
X148981538Y-99984655D01*
X149440927Y-100444846D01*
X150041453Y-100694206D01*
X150691694Y-100694774D01*
X151292655Y-100446462D01*
X151752846Y-99987073D01*
X152002206Y-99386547D01*
X152002774Y-98736306D01*
X151754462Y-98135345D01*
X151295073Y-97675154D01*
X150694547Y-97425794D01*
X150044306Y-97425226D01*
X149443345Y-97673538D01*
X148983154Y-98132927D01*
X148733794Y-98733453D01*
X148733226Y-99383694D01*
X130554000Y-99383694D01*
X130554000Y-98860463D01*
X130586192Y-98828327D01*
X130728838Y-98484799D01*
X130729162Y-98112833D01*
X130587117Y-97769057D01*
X130324327Y-97505808D01*
X129980799Y-97363162D01*
X129608833Y-97362838D01*
X129265057Y-97504883D01*
X129001808Y-97767673D01*
X128859162Y-98111201D01*
X128858838Y-98483167D01*
X129000883Y-98826943D01*
X129034000Y-98860118D01*
X129034000Y-100777198D01*
X128379241Y-101431957D01*
X128442838Y-101278799D01*
X128443162Y-100906833D01*
X128301117Y-100563057D01*
X128268000Y-100529882D01*
X128268000Y-98860463D01*
X128300192Y-98828327D01*
X128442838Y-98484799D01*
X128443162Y-98112833D01*
X128301117Y-97769057D01*
X128038327Y-97505808D01*
X127694799Y-97363162D01*
X127322833Y-97362838D01*
X126979057Y-97504883D01*
X126715808Y-97767673D01*
X126573162Y-98111201D01*
X126572838Y-98483167D01*
X124408000Y-98483167D01*
X124408000Y-94811694D01*
X131715226Y-94811694D01*
X131963538Y-95412655D01*
X132422927Y-95872846D01*
X133023453Y-96122206D01*
X133673694Y-96122774D01*
X134274655Y-95874462D01*
X134575948Y-95573694D01*
X149495226Y-95573694D01*
X149743538Y-96174655D01*
X150202927Y-96634846D01*
X150803453Y-96884206D01*
X151453694Y-96884774D01*
X152054655Y-96636462D01*
X152400233Y-96291486D01*
X152289794Y-96557453D01*
X152289226Y-97207694D01*
X152537538Y-97808655D01*
X152827480Y-98099103D01*
X152539154Y-98386927D01*
X152289794Y-98987453D01*
X152289226Y-99637694D01*
X152537538Y-100238655D01*
X152882480Y-100584199D01*
X152539154Y-100926927D01*
X152289794Y-101527453D01*
X152289226Y-102177694D01*
X152537538Y-102778655D01*
X152827480Y-103069103D01*
X152539154Y-103356927D01*
X152289794Y-103957453D01*
X152289226Y-104607694D01*
X152537538Y-105208655D01*
X152996927Y-105668846D01*
X153291088Y-105790992D01*
X152999345Y-105911538D01*
X152539154Y-106370927D01*
X152289794Y-106971453D01*
X152289226Y-107621694D01*
X152537538Y-108222655D01*
X152827480Y-108513103D01*
X152539154Y-108800927D01*
X152289794Y-109401453D01*
X152289226Y-110051694D01*
X152537538Y-110652655D01*
X152882480Y-110998199D01*
X152539154Y-111340927D01*
X152527279Y-111369525D01*
X152516462Y-111343345D01*
X152057073Y-110883154D01*
X151456547Y-110633794D01*
X150806306Y-110633226D01*
X150205345Y-110881538D01*
X149745154Y-111340927D01*
X149495794Y-111941453D01*
X149495226Y-112591694D01*
X149743538Y-113192655D01*
X150202927Y-113652846D01*
X150803453Y-113902206D01*
X151453694Y-113902774D01*
X152054655Y-113654462D01*
X152514846Y-113195073D01*
X152526721Y-113166475D01*
X152537538Y-113192655D01*
X152827480Y-113483103D01*
X152539154Y-113770927D01*
X152289794Y-114371453D01*
X152289226Y-115021694D01*
X152537538Y-115622655D01*
X152996927Y-116082846D01*
X153597453Y-116332206D01*
X154247694Y-116332774D01*
X154848655Y-116084462D01*
X155308846Y-115625073D01*
X155558206Y-115024547D01*
X155558774Y-114374306D01*
X155310462Y-113773345D01*
X155020520Y-113482897D01*
X155308846Y-113195073D01*
X155558206Y-112594547D01*
X155558774Y-111944306D01*
X155310462Y-111343345D01*
X154965520Y-110997801D01*
X155308846Y-110655073D01*
X155558206Y-110054547D01*
X155558774Y-109404306D01*
X155310462Y-108803345D01*
X155020520Y-108512897D01*
X155308846Y-108225073D01*
X155558206Y-107624547D01*
X155558774Y-106974306D01*
X155310462Y-106373345D01*
X154851073Y-105913154D01*
X154556912Y-105791008D01*
X154848655Y-105670462D01*
X155308846Y-105211073D01*
X155558206Y-104610547D01*
X155558774Y-103960306D01*
X155310462Y-103359345D01*
X155020520Y-103068897D01*
X155308846Y-102781073D01*
X155558206Y-102180547D01*
X155558774Y-101530306D01*
X155310462Y-100929345D01*
X154965520Y-100583801D01*
X155308846Y-100241073D01*
X155558206Y-99640547D01*
X155558774Y-98990306D01*
X155310462Y-98389345D01*
X155020520Y-98098897D01*
X155308846Y-97811073D01*
X155558206Y-97210547D01*
X155558774Y-96560306D01*
X155310462Y-95959345D01*
X154851073Y-95499154D01*
X154250547Y-95249794D01*
X153600306Y-95249226D01*
X152999345Y-95497538D01*
X152653767Y-95842514D01*
X152764206Y-95576547D01*
X152764774Y-94926306D01*
X152516462Y-94325345D01*
X152057073Y-93865154D01*
X151456547Y-93615794D01*
X150806306Y-93615226D01*
X150205345Y-93863538D01*
X149745154Y-94322927D01*
X149495794Y-94923453D01*
X149495226Y-95573694D01*
X134575948Y-95573694D01*
X134734846Y-95415073D01*
X134984206Y-94814547D01*
X134984774Y-94164306D01*
X134736462Y-93563345D01*
X134592577Y-93419208D01*
X138937824Y-93419208D01*
X139092175Y-93792766D01*
X139377731Y-94078821D01*
X139751018Y-94233824D01*
X140155208Y-94234176D01*
X140528766Y-94079825D01*
X140814821Y-93794269D01*
X140969824Y-93420982D01*
X140969825Y-93419208D01*
X144017824Y-93419208D01*
X144172175Y-93792766D01*
X144457731Y-94078821D01*
X144831018Y-94233824D01*
X145235208Y-94234176D01*
X145608766Y-94079825D01*
X145894821Y-93794269D01*
X146049824Y-93420982D01*
X146050176Y-93016792D01*
X145895825Y-92643234D01*
X145610269Y-92357179D01*
X145236982Y-92202176D01*
X144832792Y-92201824D01*
X144459234Y-92356175D01*
X144173179Y-92641731D01*
X144018176Y-93015018D01*
X144017824Y-93419208D01*
X140969825Y-93419208D01*
X140970176Y-93016792D01*
X140815825Y-92643234D01*
X140530269Y-92357179D01*
X140156982Y-92202176D01*
X139752792Y-92201824D01*
X139379234Y-92356175D01*
X139093179Y-92641731D01*
X138938176Y-93015018D01*
X138937824Y-93419208D01*
X134592577Y-93419208D01*
X134277073Y-93103154D01*
X133676547Y-92853794D01*
X133026306Y-92853226D01*
X132425345Y-93101538D01*
X131965154Y-93560927D01*
X131715794Y-94161453D01*
X131715226Y-94811694D01*
X124408000Y-94811694D01*
X124408000Y-90626000D01*
X155575000Y-90626000D01*
X155575000Y-118924000D01*
X155575000Y-118924000D01*
G37*
X155575000Y-118924000D02*
X124408000Y-118924000D01*
X124408000Y-113977167D01*
X128096838Y-113977167D01*
X128238883Y-114320943D01*
X128501673Y-114584192D01*
X128726958Y-114677739D01*
X131459105Y-118548280D01*
X131506376Y-118593189D01*
X131542599Y-118647401D01*
X131612843Y-118694337D01*
X131674090Y-118752523D01*
X131734947Y-118775924D01*
X131789161Y-118812148D01*
X131872017Y-118828629D01*
X131950871Y-118858950D01*
X132016053Y-118857280D01*
X132080000Y-118870000D01*
X145542000Y-118870000D01*
X145626638Y-118853164D01*
X145712893Y-118850537D01*
X145770680Y-118824512D01*
X145832839Y-118812148D01*
X145904591Y-118764205D01*
X145983276Y-118728769D01*
X146026705Y-118682611D01*
X146079401Y-118647401D01*
X146127343Y-118575650D01*
X146186479Y-118512799D01*
X146686740Y-117712382D01*
X147135694Y-117712774D01*
X147736655Y-117464462D01*
X148196846Y-117005073D01*
X148446206Y-116404547D01*
X148446774Y-115754306D01*
X148198462Y-115153345D01*
X147739073Y-114693154D01*
X147138547Y-114443794D01*
X146488306Y-114443226D01*
X145887345Y-114691538D01*
X145427154Y-115150927D01*
X145177794Y-115751453D01*
X145177226Y-116401694D01*
X145390644Y-116918205D01*
X145120772Y-117350000D01*
X132473799Y-117350000D01*
X131851327Y-116468163D01*
X133901443Y-116468163D01*
X134000042Y-116734965D01*
X134609582Y-116961401D01*
X135259377Y-116937341D01*
X135747958Y-116734965D01*
X135846557Y-116468163D01*
X134874000Y-115495605D01*
X133901443Y-116468163D01*
X131851327Y-116468163D01*
X130851387Y-115051582D01*
X133228599Y-115051582D01*
X133252659Y-115701377D01*
X133455035Y-116189958D01*
X133721837Y-116288557D01*
X134694395Y-115316000D01*
X135053605Y-115316000D01*
X136026163Y-116288557D01*
X136292965Y-116189958D01*
X136519401Y-115580418D01*
X136495341Y-114930623D01*
X136292965Y-114442042D01*
X136026163Y-114343443D01*
X135053605Y-115316000D01*
X134694395Y-115316000D01*
X133721837Y-114343443D01*
X133455035Y-114442042D01*
X133228599Y-115051582D01*
X130851387Y-115051582D01*
X130224744Y-114163837D01*
X133901443Y-114163837D01*
X134874000Y-115136395D01*
X135846557Y-114163837D01*
X135747958Y-113897035D01*
X135138418Y-113670599D01*
X134488623Y-113694659D01*
X134000042Y-113897035D01*
X133901443Y-114163837D01*
X130224744Y-114163837D01*
X129966995Y-113798694D01*
X129967162Y-113606833D01*
X129825117Y-113263057D01*
X129562327Y-112999808D01*
X129218799Y-112857162D01*
X128846833Y-112856838D01*
X128503057Y-112998883D01*
X128239808Y-113261673D01*
X128097162Y-113605201D01*
X128096838Y-113977167D01*
X124408000Y-113977167D01*
X124408000Y-111169567D01*
X131786838Y-111169567D01*
X131928883Y-111513343D01*
X132191673Y-111776592D01*
X132535201Y-111919238D01*
X132907167Y-111919562D01*
X133250943Y-111777517D01*
X133514192Y-111514727D01*
X133656776Y-111171347D01*
X136814818Y-111190525D01*
X136664154Y-111340927D01*
X136414794Y-111941453D01*
X136414226Y-112591694D01*
X136662538Y-113192655D01*
X137121927Y-113652846D01*
X137722453Y-113902206D01*
X138372694Y-113902774D01*
X138973655Y-113654462D01*
X139433846Y-113195073D01*
X139683206Y-112594547D01*
X139683774Y-111944306D01*
X139435462Y-111343345D01*
X139297962Y-111205605D01*
X141903011Y-111221424D01*
X141963673Y-111282192D01*
X142307201Y-111424838D01*
X142679167Y-111425162D01*
X143022943Y-111283117D01*
X143286192Y-111020327D01*
X143428838Y-110676799D01*
X143429162Y-110304833D01*
X143287117Y-109961057D01*
X143024327Y-109697808D01*
X142680799Y-109555162D01*
X142308833Y-109554838D01*
X141965057Y-109696883D01*
X141910402Y-109751443D01*
X133276863Y-109699014D01*
X133274629Y-109699444D01*
X133272400Y-109699001D01*
X133133995Y-109726531D01*
X132995257Y-109753253D01*
X132993358Y-109754505D01*
X132991128Y-109754949D01*
X132873662Y-109833437D01*
X132755843Y-109911131D01*
X132754570Y-109913012D01*
X132752676Y-109914277D01*
X132617645Y-110049308D01*
X132536833Y-110049238D01*
X132193057Y-110191283D01*
X131929808Y-110454073D01*
X131787162Y-110797601D01*
X131786838Y-111169567D01*
X124408000Y-111169567D01*
X124408000Y-104071167D01*
X131652838Y-104071167D01*
X131794883Y-104414943D01*
X132057673Y-104678192D01*
X132401201Y-104820838D01*
X132773167Y-104821162D01*
X133116943Y-104679117D01*
X133380192Y-104416327D01*
X133522838Y-104072799D01*
X133522879Y-104025923D01*
X133633401Y-103915401D01*
X133699039Y-103817167D01*
X146130838Y-103817167D01*
X146272883Y-104160943D01*
X146306000Y-104194118D01*
X146306000Y-109419537D01*
X146273808Y-109451673D01*
X146131162Y-109795201D01*
X146130838Y-110167167D01*
X146272883Y-110510943D01*
X146535673Y-110774192D01*
X146879201Y-110916838D01*
X147251167Y-110917162D01*
X147594943Y-110775117D01*
X147858192Y-110512327D01*
X148000838Y-110168799D01*
X148001162Y-109796833D01*
X147859117Y-109453057D01*
X147826000Y-109419882D01*
X147826000Y-104417317D01*
X148170927Y-104762846D01*
X148771453Y-105012206D01*
X149421694Y-105012774D01*
X150022655Y-104764462D01*
X150482846Y-104305073D01*
X150732206Y-103704547D01*
X150732774Y-103054306D01*
X150484462Y-102453345D01*
X150025073Y-101993154D01*
X149424547Y-101743794D01*
X148774306Y-101743226D01*
X148173345Y-101991538D01*
X147713154Y-102450927D01*
X147558243Y-102823994D01*
X147252799Y-102697162D01*
X146880833Y-102696838D01*
X146537057Y-102838883D01*
X146273808Y-103101673D01*
X146131162Y-103445201D01*
X146130838Y-103817167D01*
X133699039Y-103817167D01*
X133798148Y-103668839D01*
X133856000Y-103378000D01*
X133856000Y-101785167D01*
X139272838Y-101785167D01*
X139414883Y-102128943D01*
X139677673Y-102392192D01*
X140021201Y-102534838D01*
X140393167Y-102535162D01*
X140736943Y-102393117D01*
X140770118Y-102360000D01*
X142439537Y-102360000D01*
X142471673Y-102392192D01*
X142815201Y-102534838D01*
X143187167Y-102535162D01*
X143530943Y-102393117D01*
X143794192Y-102130327D01*
X143936838Y-101786799D01*
X143937162Y-101414833D01*
X143795117Y-101071057D01*
X143532327Y-100807808D01*
X143188799Y-100665162D01*
X142816833Y-100664838D01*
X142473057Y-100806883D01*
X142439882Y-100840000D01*
X140770463Y-100840000D01*
X140738327Y-100807808D01*
X140394799Y-100665162D01*
X140022833Y-100664838D01*
X139679057Y-100806883D01*
X139415808Y-101069673D01*
X139273162Y-101413201D01*
X139272838Y-101785167D01*
X133856000Y-101785167D01*
X133856000Y-101406802D01*
X133997680Y-101265122D01*
X134043167Y-101265162D01*
X134386943Y-101123117D01*
X134650192Y-100860327D01*
X134792838Y-100516799D01*
X134793162Y-100144833D01*
X134651117Y-99801057D01*
X134388327Y-99537808D01*
X134044799Y-99395162D01*
X133672833Y-99394838D01*
X133329057Y-99536883D01*
X133065808Y-99799673D01*
X132923162Y-100143201D01*
X132923121Y-100190077D01*
X132558599Y-100554599D01*
X132393852Y-100801161D01*
X132336000Y-101092000D01*
X132336000Y-102978453D01*
X132059057Y-103092883D01*
X131795808Y-103355673D01*
X131653162Y-103699201D01*
X131652838Y-104071167D01*
X124408000Y-104071167D01*
X124408000Y-98483167D01*
X126572838Y-98483167D01*
X126714883Y-98826943D01*
X126748000Y-98860118D01*
X126748000Y-100529537D01*
X126715808Y-100561673D01*
X126573162Y-100905201D01*
X126572838Y-101277167D01*
X126714883Y-101620943D01*
X126947709Y-101854176D01*
X126715808Y-102085673D01*
X126573162Y-102429201D01*
X126572838Y-102801167D01*
X126714883Y-103144943D01*
X126977673Y-103408192D01*
X127321201Y-103550838D01*
X127693167Y-103551162D01*
X128036943Y-103409117D01*
X128070118Y-103376000D01*
X128270000Y-103376000D01*
X128560839Y-103318148D01*
X128807401Y-103153401D01*
X130331401Y-101629401D01*
X130496148Y-101382840D01*
X130505746Y-101334586D01*
X130554000Y-101092000D01*
X130554000Y-99383694D01*
X148733226Y-99383694D01*
X148981538Y-99984655D01*
X149440927Y-100444846D01*
X150041453Y-100694206D01*
X150691694Y-100694774D01*
X151292655Y-100446462D01*
X151752846Y-99987073D01*
X152002206Y-99386547D01*
X152002774Y-98736306D01*
X151754462Y-98135345D01*
X151295073Y-97675154D01*
X150694547Y-97425794D01*
X150044306Y-97425226D01*
X149443345Y-97673538D01*
X148983154Y-98132927D01*
X148733794Y-98733453D01*
X148733226Y-99383694D01*
X130554000Y-99383694D01*
X130554000Y-98860463D01*
X130586192Y-98828327D01*
X130728838Y-98484799D01*
X130729162Y-98112833D01*
X130587117Y-97769057D01*
X130324327Y-97505808D01*
X129980799Y-97363162D01*
X129608833Y-97362838D01*
X129265057Y-97504883D01*
X129001808Y-97767673D01*
X128859162Y-98111201D01*
X128858838Y-98483167D01*
X129000883Y-98826943D01*
X129034000Y-98860118D01*
X129034000Y-100777198D01*
X128379241Y-101431957D01*
X128442838Y-101278799D01*
X128443162Y-100906833D01*
X128301117Y-100563057D01*
X128268000Y-100529882D01*
X128268000Y-98860463D01*
X128300192Y-98828327D01*
X128442838Y-98484799D01*
X128443162Y-98112833D01*
X128301117Y-97769057D01*
X128038327Y-97505808D01*
X127694799Y-97363162D01*
X127322833Y-97362838D01*
X126979057Y-97504883D01*
X126715808Y-97767673D01*
X126573162Y-98111201D01*
X126572838Y-98483167D01*
X124408000Y-98483167D01*
X124408000Y-94811694D01*
X131715226Y-94811694D01*
X131963538Y-95412655D01*
X132422927Y-95872846D01*
X133023453Y-96122206D01*
X133673694Y-96122774D01*
X134274655Y-95874462D01*
X134575948Y-95573694D01*
X149495226Y-95573694D01*
X149743538Y-96174655D01*
X150202927Y-96634846D01*
X150803453Y-96884206D01*
X151453694Y-96884774D01*
X152054655Y-96636462D01*
X152400233Y-96291486D01*
X152289794Y-96557453D01*
X152289226Y-97207694D01*
X152537538Y-97808655D01*
X152827480Y-98099103D01*
X152539154Y-98386927D01*
X152289794Y-98987453D01*
X152289226Y-99637694D01*
X152537538Y-100238655D01*
X152882480Y-100584199D01*
X152539154Y-100926927D01*
X152289794Y-101527453D01*
X152289226Y-102177694D01*
X152537538Y-102778655D01*
X152827480Y-103069103D01*
X152539154Y-103356927D01*
X152289794Y-103957453D01*
X152289226Y-104607694D01*
X152537538Y-105208655D01*
X152996927Y-105668846D01*
X153291088Y-105790992D01*
X152999345Y-105911538D01*
X152539154Y-106370927D01*
X152289794Y-106971453D01*
X152289226Y-107621694D01*
X152537538Y-108222655D01*
X152827480Y-108513103D01*
X152539154Y-108800927D01*
X152289794Y-109401453D01*
X152289226Y-110051694D01*
X152537538Y-110652655D01*
X152882480Y-110998199D01*
X152539154Y-111340927D01*
X152527279Y-111369525D01*
X152516462Y-111343345D01*
X152057073Y-110883154D01*
X151456547Y-110633794D01*
X150806306Y-110633226D01*
X150205345Y-110881538D01*
X149745154Y-111340927D01*
X149495794Y-111941453D01*
X149495226Y-112591694D01*
X149743538Y-113192655D01*
X150202927Y-113652846D01*
X150803453Y-113902206D01*
X151453694Y-113902774D01*
X152054655Y-113654462D01*
X152514846Y-113195073D01*
X152526721Y-113166475D01*
X152537538Y-113192655D01*
X152827480Y-113483103D01*
X152539154Y-113770927D01*
X152289794Y-114371453D01*
X152289226Y-115021694D01*
X152537538Y-115622655D01*
X152996927Y-116082846D01*
X153597453Y-116332206D01*
X154247694Y-116332774D01*
X154848655Y-116084462D01*
X155308846Y-115625073D01*
X155558206Y-115024547D01*
X155558774Y-114374306D01*
X155310462Y-113773345D01*
X155020520Y-113482897D01*
X155308846Y-113195073D01*
X155558206Y-112594547D01*
X155558774Y-111944306D01*
X155310462Y-111343345D01*
X154965520Y-110997801D01*
X155308846Y-110655073D01*
X155558206Y-110054547D01*
X155558774Y-109404306D01*
X155310462Y-108803345D01*
X155020520Y-108512897D01*
X155308846Y-108225073D01*
X155558206Y-107624547D01*
X155558774Y-106974306D01*
X155310462Y-106373345D01*
X154851073Y-105913154D01*
X154556912Y-105791008D01*
X154848655Y-105670462D01*
X155308846Y-105211073D01*
X155558206Y-104610547D01*
X155558774Y-103960306D01*
X155310462Y-103359345D01*
X155020520Y-103068897D01*
X155308846Y-102781073D01*
X155558206Y-102180547D01*
X155558774Y-101530306D01*
X155310462Y-100929345D01*
X154965520Y-100583801D01*
X155308846Y-100241073D01*
X155558206Y-99640547D01*
X155558774Y-98990306D01*
X155310462Y-98389345D01*
X155020520Y-98098897D01*
X155308846Y-97811073D01*
X155558206Y-97210547D01*
X155558774Y-96560306D01*
X155310462Y-95959345D01*
X154851073Y-95499154D01*
X154250547Y-95249794D01*
X153600306Y-95249226D01*
X152999345Y-95497538D01*
X152653767Y-95842514D01*
X152764206Y-95576547D01*
X152764774Y-94926306D01*
X152516462Y-94325345D01*
X152057073Y-93865154D01*
X151456547Y-93615794D01*
X150806306Y-93615226D01*
X150205345Y-93863538D01*
X149745154Y-94322927D01*
X149495794Y-94923453D01*
X149495226Y-95573694D01*
X134575948Y-95573694D01*
X134734846Y-95415073D01*
X134984206Y-94814547D01*
X134984774Y-94164306D01*
X134736462Y-93563345D01*
X134592577Y-93419208D01*
X138937824Y-93419208D01*
X139092175Y-93792766D01*
X139377731Y-94078821D01*
X139751018Y-94233824D01*
X140155208Y-94234176D01*
X140528766Y-94079825D01*
X140814821Y-93794269D01*
X140969824Y-93420982D01*
X140969825Y-93419208D01*
X144017824Y-93419208D01*
X144172175Y-93792766D01*
X144457731Y-94078821D01*
X144831018Y-94233824D01*
X145235208Y-94234176D01*
X145608766Y-94079825D01*
X145894821Y-93794269D01*
X146049824Y-93420982D01*
X146050176Y-93016792D01*
X145895825Y-92643234D01*
X145610269Y-92357179D01*
X145236982Y-92202176D01*
X144832792Y-92201824D01*
X144459234Y-92356175D01*
X144173179Y-92641731D01*
X144018176Y-93015018D01*
X144017824Y-93419208D01*
X140969825Y-93419208D01*
X140970176Y-93016792D01*
X140815825Y-92643234D01*
X140530269Y-92357179D01*
X140156982Y-92202176D01*
X139752792Y-92201824D01*
X139379234Y-92356175D01*
X139093179Y-92641731D01*
X138938176Y-93015018D01*
X138937824Y-93419208D01*
X134592577Y-93419208D01*
X134277073Y-93103154D01*
X133676547Y-92853794D01*
X133026306Y-92853226D01*
X132425345Y-93101538D01*
X131965154Y-93560927D01*
X131715794Y-94161453D01*
X131715226Y-94811694D01*
X124408000Y-94811694D01*
X124408000Y-90626000D01*
X155575000Y-90626000D01*
X155575000Y-118924000D01*
M02*
